<?xml version="1.0" encoding="UTF-8" standalone="no"?>
<!-- Created with Inkscape (http://www.inkscape.org/) -->

<svg
   width="7.8217707in"
   height="6.3584852in"
   viewBox="0 0 198.67297 161.50552"
   version="1.1"
   id="svg1"
   xml:space="preserve"
   inkscape:version="1.3.2 (091e20e, 2023-11-25, custom)"
   sodipodi:docname="INKSCAPE_GSAPoster2.svg"
   inkscape:export-filename="GSA_2024_poster_NMiller_fontsfixed.pdf"
   inkscape:export-xdpi="300"
   inkscape:export-ydpi="300"
   xmlns:inkscape="http://www.inkscape.org/namespaces/inkscape"
   xmlns:sodipodi="http://sodipodi.sourceforge.net/DTD/sodipodi-0.dtd"
   xmlns:xlink="http://www.w3.org/1999/xlink"
   xmlns="http://www.w3.org/2000/svg"
   xmlns:svg="http://www.w3.org/2000/svg"><sodipodi:namedview
     id="namedview1"
     pagecolor="#ffffff"
     bordercolor="#626262"
     borderopacity="1"
     inkscape:showpageshadow="2"
     inkscape:pageopacity="0.0"
     inkscape:pagecheckerboard="0"
     inkscape:deskcolor="#cccccc"
     inkscape:document-units="in"
     inkscape:zoom="1.5641327"
     inkscape:cx="194.67657"
     inkscape:cy="1344.1954"
     inkscape:window-width="1920"
     inkscape:window-height="1094"
     inkscape:window-x="2869"
     inkscape:window-y="-11"
     inkscape:window-maximized="1"
     inkscape:current-layer="layer1"
     showgrid="true"
     showguides="true"><inkscape:grid
       id="grid1"
       units="in"
       originx="-87.082532"
       originy="507653.35"
       spacingx="25.4"
       spacingy="25.4"
       empcolor="#803fff"
       empopacity="0.67058824"
       color="#3f3fff"
       opacity="0.12549"
       empspacing="6"
       dotted="true"
       gridanglex="30"
       gridanglez="30"
       visible="true" /><sodipodi:guide
       position="482.0398,601.93383"
       orientation="1,0"
       id="guide736"
       inkscape:locked="false" /></sodipodi:namedview><defs
     id="defs1"><style
       type="text/css"
       id="style1">*{stroke-linejoin: round; stroke-linecap: butt}</style><inkscape:path-effect
       effect="bspline"
       id="path-effect142"
       is_visible="true"
       lpeversion="1.3"
       weight="33.333333"
       steps="2"
       helper_size="0"
       apply_no_weight="true"
       apply_with_weight="true"
       only_selected="false"
       uniform="false" /><marker
       style="overflow:visible"
       id="marker299-1"
       refX="0"
       refY="0"
       orient="auto-start-reverse"
       inkscape:stockid="Concave triangle arrow"
       markerWidth="2"
       markerHeight="2"
       viewBox="0 0 1 1"
       inkscape:isstock="true"
       inkscape:collect="always"
       preserveAspectRatio="xMidYMid"><path
         transform="scale(0.7)"
         d="M -2,-4 9,0 -2,4 c 2,-2.33 2,-5.66 0,-8 z"
         style="fill:context-stroke;fill-rule:evenodd;stroke:none"
         id="path299-5" /></marker><inkscape:path-effect
       effect="bspline"
       id="path-effect298-2"
       is_visible="true"
       lpeversion="1.3"
       weight="33.333333"
       steps="2"
       helper_size="0"
       apply_no_weight="true"
       apply_with_weight="true"
       only_selected="false"
       uniform="false" /><marker
       style="overflow:visible"
       id="marker299-1-3"
       refX="0"
       refY="0"
       orient="auto-start-reverse"
       inkscape:stockid="Concave triangle arrow"
       markerWidth="1"
       markerHeight="1"
       viewBox="0 0 1 1"
       inkscape:isstock="true"
       inkscape:collect="always"
       preserveAspectRatio="xMidYMid"><path
         transform="scale(0.7)"
         d="M -2,-4 9,0 -2,4 c 2,-2.33 2,-5.66 0,-8 z"
         style="fill:context-stroke;fill-rule:evenodd;stroke:none"
         id="path299-5-0" /></marker><pattern
       inkscape:collect="always"
       xlink:href="#pattern286-7"
       preserveAspectRatio="none"
       id="pattern287-6"
       patternTransform="matrix(0.4,0,-0.0231397,0.11,354.22674,-258.99215)" /><pattern
       inkscape:collect="always"
       xlink:href="#pattern283-4"
       preserveAspectRatio="none"
       id="pattern286-7"
       patternTransform="matrix(0.4,0,-0.0231397,0.11,-9.5327799,0)" /><pattern
       inkscape:collect="always"
       xlink:href="#pattern281-9"
       preserveAspectRatio="none"
       id="pattern283-4"
       patternTransform="matrix(0.4,0,-0.0231397,0.11,54.594757,0)" /><pattern
       inkscape:collect="always"
       xlink:href="#Grid1-2"
       preserveAspectRatio="none"
       id="pattern281-9"
       patternTransform="matrix(0.4,0,-0.0231397,0.11,22.530989,0)"
       x="0"
       y="0" /><pattern
       patternUnits="userSpaceOnUse"
       width="20"
       height="20"
       preserveAspectRatio="xMidYMid"
       id="Grid1-2"
       x="0"
       y="0"
       style="fill:#a4a4a4"
       inkscape:label="Regular grid"
       inkscape:collect="always"
       inkscape:isstock="true"><g
         id="g63950-5-9"><rect
           style="fill-opacity:1;stroke:none;stroke-width:1;stroke-dasharray:none"
           id="rect62492-2-4"
           width="1"
           height="20"
           x="9.5"
           y="0" /><rect
           style="fill-opacity:1;stroke:none;stroke-width:1;stroke-dasharray:none"
           id="rect63583-4-6"
           width="1"
           height="20"
           x="-10.5"
           y="0"
           transform="rotate(-90)" /></g></pattern><clipPath
       clipPathUnits="userSpaceOnUse"
       id="clipPath284"><path
         id="path285"
         style="display:inline;fill:#3a3a3e;fill-opacity:1;stroke:#3a3a3e;stroke-width:0.4;stroke-opacity:1"
         d="m 482.96941,241.6087 v -20.91712 h 27.00086 v 20.91712"
         sodipodi:nodetypes="cccc" /></clipPath><style
       type="text/css"
       id="style1-9">*{stroke-linejoin: round; stroke-linecap: butt}</style><style
       type="text/css"
       id="style1-8">*{stroke-linejoin: round; stroke-linecap: butt}</style><style
       type="text/css"
       id="style1-7">*{stroke-linejoin: round; stroke-linecap: butt}</style></defs><g
     inkscape:label="Layer 1"
     inkscape:groupmode="layer"
     id="layer1"
     transform="translate(-48.982536,-346.64618)"><rect
       style="display:none;fill:#ffffff;fill-opacity:1;stroke:#000000;stroke-width:0.3;stroke-linecap:butt;stroke-linejoin:round;stroke-dasharray:none;stroke-opacity:1"
       id="rect506-0"
       width="60.097412"
       height="29.437277"
       x="166.05095"
       y="471.71634" /><rect
       style="display:none;fill:#ffffff;fill-opacity:1;stroke:#000000;stroke-width:0.3048;stroke-linecap:butt;stroke-linejoin:round;stroke-dasharray:none;stroke-opacity:1"
       id="rect512-9"
       width="86.931534"
       height="56.701736"
       x="166.0593"
       y="500.32211" /><g
       id="g630"
       transform="translate(56.252073,-1.0149395)"><rect
         style="opacity:0.98377;fill:#fcfcfc;fill-opacity:1;stroke:none;stroke-width:0.665002;stroke-dasharray:none;stroke-opacity:1"
         id="rect628"
         width="132.65837"
         height="26.470266"
         x="459.67908"
         y="260.67166" /><text
         xml:space="preserve"
         style="font-style:normal;font-variant:normal;font-weight:normal;font-stretch:normal;font-size:6.35px;line-height:5.44444px;font-family:'Times New Roman';-inkscape-font-specification:'Times New Roman, Normal';font-variant-ligatures:normal;font-variant-caps:normal;font-variant-numeric:normal;font-variant-east-asian:normal;text-decoration:none;text-decoration-line:none;text-decoration-color:#000000;letter-spacing:0px;word-spacing:0px;writing-mode:lr-tb;white-space:pre;shape-inside:url(#rect628);display:inline;fill:#000000;stroke-width:0.264583;stroke-linecap:butt;stroke-linejoin:round"
         x="449.64694"
         y="402.74255"
         id="text1072"
         transform="translate(4.0965771,1.7248746)"><tspan
           x="459.67969"
           y="265.06174"
           id="tspan2"><tspan
             style="font-size:4.93889px;font-family:Arial;-inkscape-font-specification:'Arial, Normal'"
             id="tspan1">South-eastern Arizona, Mescal Mountains.  
</tspan></tspan><tspan
           x="459.67969"
           y="270.81189"
           id="tspan4"><tspan
             style="font-size:4.93889px;font-family:Arial;-inkscape-font-specification:'Arial, Normal'"
             id="tspan3">  Mean annual precipitation: 400 mm/yr  
</tspan></tspan><tspan
           x="459.67969"
           y="276.56204"
           id="tspan6"><tspan
             style="font-size:4.93889px;font-family:Arial;-inkscape-font-specification:'Arial, Normal'"
             id="tspan5">  Mean annual temperature: 18°C  
</tspan></tspan><tspan
           x="459.67969"
           y="282.3122"
           id="tspan8"><tspan
             style="font-size:4.93889px;font-family:Arial;-inkscape-font-specification:'Arial, Normal'"
             id="tspan7">  Köppen-Geiger Climate Classification: Hot Desert (BWh)</tspan></tspan></text></g><g
       id="g35"><g
         id="g21"
         transform="matrix(0.75248933,0,0,0.91959706,-6.721842,14.937747)"
         style="font-variation-settings:normal;vector-effect:none;fill:#ffffff;fill-opacity:1;stroke:#576b51;stroke-width:7.63349;stroke-linecap:butt;stroke-linejoin:miter;stroke-miterlimit:4;stroke-dasharray:none;stroke-dashoffset:0;stroke-opacity:1;-inkscape-stroke:none;stop-color:#000000"><rect
           style="font-variation-settings:normal;vector-effect:none;fill:#ffffff;fill-opacity:1;stroke:#576b51;stroke-width:7.63349;stroke-linecap:butt;stroke-linejoin:miter;stroke-miterlimit:4;stroke-dasharray:none;stroke-dashoffset:0;stroke-opacity:1;-inkscape-stroke:none;stop-color:#000000;stop-opacity:1"
           id="rect19"
           width="286.55048"
           height="627.38385"
           x="63.073196"
           y="92.329926" /></g></g><g
       id="g1087"
       transform="translate(0,-32.424647)"
       inkscape:export-filename="Figure_Fluxes_Concepts_from_INKSCAPE_GSAPoster2.png"
       inkscape:export-xdpi="300"
       inkscape:export-ydpi="300"><path
         d="M 106.94229,512.01078 H 84.829955 v 18.56476 c 3.4954,-0.237 7.06376,-0.36019 10.6903,-0.36019 5.595885,0 11.047485,0.30115 16.310625,0.85525 v -18.61282 c -1.61082,-0.17545 -3.24226,-0.32165 -4.88859,-0.447 z"
         style="display:inline;fill:#3a3a3e;stroke:#3a3a3e;stroke-width:0.4"
         id="path288" /><path
         style="font-variation-settings:normal;display:inline;vector-effect:none;fill:none;fill-opacity:1;stroke:#000000;stroke-width:0.6;stroke-linecap:butt;stroke-linejoin:miter;stroke-miterlimit:4;stroke-dasharray:none;stroke-dashoffset:0;stroke-opacity:1;-inkscape-stroke:none;marker-end:url(#marker299-1);stop-color:#000000"
         d="m 176.34763,444.04692 c 0,0 4.8141,-0.44182 14.03802,0.18332 12.83788,0.87013 18.45219,9.14689 18.45219,9.14689"
         id="path111"
         sodipodi:nodetypes="ccc" /><g
         id="g137"
         transform="matrix(3.0790312,0,0,3.0936052,21.418645,971.83479)"
         style="display:inline;stroke-width:0.324012"><path
           style="opacity:1;fill:#a75e34;fill-opacity:1;stroke:none;stroke-width:0.0858637;stroke-dasharray:none;stroke-dashoffset:0;stroke-opacity:1"
           d="m 29.467298,-164.48973 v -1.97277 h 10.500911 10.500902 v 1.97277 1.97278 H 39.968209 29.467298 Z"
           id="path112" /><path
           sodipodi:type="star"
           style="opacity:1;fill:#584f4f;fill-opacity:1;stroke:none;stroke-width:0.0603982;stroke-dasharray:none;stroke-dashoffset:0;stroke-opacity:1"
           id="path113"
           inkscape:flatsided="true"
           sodipodi:sides="4"
           sodipodi:cx="53.146626"
           sodipodi:cy="25.879276"
           sodipodi:r1="0.64215165"
           sodipodi:r2="0.45406979"
           sodipodi:arg1="0.49642275"
           sodipodi:arg2="1.2818209"
           inkscape:rounded="0.06"
           inkscape:randomized="0.412"
           d="m 53.966395,26.123814 c -0.04477,0.03324 -1.239979,0.180399 -1.295852,0.148297 -0.05587,-0.0321 0.05494,-0.40589 0.08591,-0.439793 0.03097,-0.0339 0.680308,-0.386308 0.737658,-0.379648 0.05735,0.0067 0.517055,0.637906 0.472284,0.671144 z"
           inkscape:transform-center-x="-0.1222932"
           inkscape:transform-center-y="0.076269296"
           transform="matrix(1.3331655,-2.8685276,3.023998,1.2646245,-117.15321,-44.501945)" /><path
           sodipodi:type="star"
           style="opacity:1;fill:#584f4f;fill-opacity:1;stroke:none;stroke-width:0.0603982;stroke-dasharray:none;stroke-dashoffset:0;stroke-opacity:1"
           id="path114"
           inkscape:flatsided="true"
           sodipodi:sides="4"
           sodipodi:cx="54.134739"
           sodipodi:cy="26.796814"
           sodipodi:r1="0.76813591"
           sodipodi:r2="0.54315412"
           sodipodi:arg1="0.69865982"
           sodipodi:arg2="1.484058"
           inkscape:rounded="0.06"
           inkscape:randomized="0.412"
           d="m 54.49125,27.336103 c -0.01679,0.05327 -0.897667,0.223959 -0.954579,0.190797 -0.05691,-0.03316 0.02122,-1.495205 0.09161,-1.519339 0.07039,-0.02413 0.661803,0.271848 0.7031,0.337797 0.0413,0.06595 0.176652,0.937471 0.159866,0.990745 z"
           inkscape:transform-center-x="0.060138034"
           inkscape:transform-center-y="-0.47522782"
           transform="matrix(3.3048289,0,0,3.1349203,-143.63272,-249.09923)" /><path
           sodipodi:type="star"
           style="opacity:1;fill:#584f4f;fill-opacity:1;stroke:none;stroke-width:0.0603982;stroke-dasharray:none;stroke-dashoffset:0;stroke-opacity:1"
           id="path115"
           inkscape:flatsided="true"
           sodipodi:sides="4"
           sodipodi:cx="55.311073"
           sodipodi:cy="25.596958"
           sodipodi:r1="0.50895852"
           sodipodi:r2="0.35988802"
           sodipodi:arg1="0.5880026"
           sodipodi:arg2="1.3734008"
           inkscape:rounded="0.06"
           inkscape:randomized="0.412"
           d="m 55.643538,25.690459 c -0.02141,0.03835 -0.454544,0.464934 -0.497661,0.462623 -0.04312,-0.0023 -0.348099,-0.66438 -0.310026,-0.695861 0.03807,-0.03148 0.860622,-0.268119 0.894859,-0.247019 0.03424,0.0211 -0.06576,0.441907 -0.08717,0.480257 z"
           inkscape:transform-center-x="0.51786521"
           inkscape:transform-center-y="-0.80252137"
           transform="matrix(2.0720055,-2.4422566,2.5746237,1.9654791,-143.86968,-88.198689)" /><path
           sodipodi:type="star"
           style="opacity:1;fill:#584f4f;fill-opacity:1;stroke:none;stroke-width:0.0603982;stroke-dasharray:none;stroke-dashoffset:0;stroke-opacity:1"
           id="path116"
           inkscape:flatsided="true"
           sodipodi:sides="4"
           sodipodi:cx="55.287548"
           sodipodi:cy="26.985029"
           sodipodi:r1="0.80473405"
           sodipodi:r2="0.56903291"
           sodipodi:arg1="0.66104317"
           sodipodi:arg2="1.4464413"
           inkscape:rounded="0.06"
           inkscape:randomized="0.412"
           d="m 56.20932,27.207217 c -0.02013,0.07337 -1.167297,0.371844 -1.229139,0.36561 -0.06184,-0.0062 -0.4608,-0.759487 -0.40831,-0.815268 0.05249,-0.05578 1.196035,-0.655249 1.264897,-0.649226 0.06886,0.006 0.392686,1.025512 0.372552,1.098884 z"
           inkscape:transform-center-x="0.16954287"
           inkscape:transform-center-y="0.32407247"
           transform="matrix(3.3048289,0,0,3.1349203,-143.63272,-249.09923)" /><path
           sodipodi:type="star"
           style="opacity:1;fill:#584f4f;fill-opacity:1;stroke:none;stroke-width:0.0603982;stroke-dasharray:none;stroke-dashoffset:0;stroke-opacity:1"
           id="path117"
           inkscape:flatsided="true"
           sodipodi:sides="4"
           sodipodi:cx="56.910885"
           sodipodi:cy="27.220295"
           sodipodi:r1="0.85638171"
           sodipodi:r2="0.60555333"
           sodipodi:arg1="-0.92180077"
           sodipodi:arg2="-0.1364026"
           inkscape:rounded="0.06"
           inkscape:randomized="0.412"
           d="m 57.378976,26.243798 c 0.08671,0.01125 0.44013,1.122527 0.376826,1.175098 -0.0633,0.05257 -1.016774,0.553348 -1.057411,0.504433 -0.04064,-0.04891 -0.385661,-1.106925 -0.376826,-1.175098 0.0088,-0.06817 0.970702,-0.515687 1.057411,-0.504433 z"
           inkscape:transform-center-x="0.19945197"
           inkscape:transform-center-y="-0.33071798"
           transform="matrix(2.7676991,1.7131758,-1.8060277,2.6254055,-64.790717,-333.28947)" /><path
           sodipodi:type="star"
           style="opacity:1;fill:#584f4f;fill-opacity:1;stroke:none;stroke-width:0.0603982;stroke-dasharray:none;stroke-dashoffset:0;stroke-opacity:1"
           id="path118"
           inkscape:flatsided="true"
           sodipodi:sides="4"
           sodipodi:cx="57.710789"
           sodipodi:cy="25.620483"
           sodipodi:r1="0.91360843"
           sodipodi:r2="0.64601874"
           sodipodi:arg1="0.96850898"
           sodipodi:arg2="1.7539071"
           inkscape:rounded="0.06"
           inkscape:randomized="0.412"
           d="m 58.212282,26.043505 c -0.05176,0.06478 -0.886017,0.456657 -0.893863,0.392711 -0.0078,-0.06395 0.205997,-1.363465 0.234806,-1.426678 0.02881,-0.06321 0.873558,0.231818 0.893088,0.295067 0.01953,0.06325 -0.182274,0.674117 -0.234031,0.7389 z"
           inkscape:transform-center-x="0.50851528"
           inkscape:transform-center-y="0.062478929"
           transform="matrix(3.3048289,0,0,3.1349203,-143.36119,-245.22657)" /><path
           sodipodi:type="star"
           style="opacity:1;fill:#584f4f;fill-opacity:1;stroke:none;stroke-width:0.0603982;stroke-dasharray:none;stroke-dashoffset:0;stroke-opacity:1"
           id="path119"
           inkscape:flatsided="true"
           sodipodi:sides="4"
           sodipodi:cx="57.193203"
           sodipodi:cy="25.455797"
           sodipodi:r1="0.71437281"
           sodipodi:r2="0.50513786"
           sodipodi:arg1="-2.8406724"
           sodipodi:arg2="-2.0552743"
           inkscape:rounded="0.06"
           inkscape:randomized="0.412"
           d="m 56.764097,25.489653 c 0.03084,-0.04968 0.323349,-1.050345 0.361933,-0.998467 0.03858,0.05188 0.50297,1.35771 0.502985,1.410045 1.5e-5,0.05234 -0.658772,0.460117 -0.717902,0.470344 -0.05913,0.01023 -0.177861,-0.832241 -0.147016,-0.881922 z"
           inkscape:transform-center-x="0.53555144"
           inkscape:transform-center-y="-0.11480058"
           transform="matrix(3.3048289,0,0,3.1349203,-140.13391,-249.0618)" /><path
           sodipodi:type="star"
           style="opacity:1;fill:#584f4f;fill-opacity:1;stroke:none;stroke-width:0.0603982;stroke-dasharray:none;stroke-dashoffset:0;stroke-opacity:1"
           id="path120"
           inkscape:flatsided="true"
           sodipodi:sides="4"
           sodipodi:cx="54.675854"
           sodipodi:cy="23.832462"
           sodipodi:r1="1.0009186"
           sodipodi:r2="0.70775628"
           sodipodi:arg1="0.51623067"
           sodipodi:arg2="1.3016288"
           inkscape:rounded="0.06"
           inkscape:randomized="0.412"
           d="m 55.568443,24.427679 c -0.0728,0.04409 -1.394881,0.1856 -1.444302,0.120193 -0.04942,-0.06541 -0.780562,-0.848602 -0.708691,-0.88266 0.07187,-0.03406 1.361806,-0.939696 1.444302,-0.944951 0.0825,-0.0053 0.781487,1.663323 0.708691,1.707418 z"
           inkscape:transform-center-x="0.60816386"
           inkscape:transform-center-y="1.1582672"
           transform="matrix(0.99627504,2.9890798,-3.151084,0.94505433,60.417196,-355.51305)" /><path
           sodipodi:type="star"
           style="opacity:1;fill:#584f4f;fill-opacity:1;stroke:none;stroke-width:0.0603982;stroke-dasharray:none;stroke-dashoffset:0;stroke-opacity:1"
           id="path121"
           inkscape:flatsided="true"
           sodipodi:sides="4"
           sodipodi:cx="56.369774"
           sodipodi:cy="23.691301"
           sodipodi:r1="0.69193852"
           sodipodi:r2="0.48927444"
           sodipodi:arg1="0.95449939"
           sodipodi:arg2="1.7398976"
           inkscape:rounded="0.06"
           inkscape:randomized="0.412"
           d="m 56.672738,24.139192 c -0.04687,0.02525 -0.563901,0.05576 -0.623323,0.02236 -0.05942,-0.0334 -0.268442,-1.162294 -0.204971,-1.188815 0.06347,-0.02652 0.802262,0.257734 0.819109,0.315504 0.01685,0.05777 0.05605,0.825699 0.0092,0.850953 z"
           inkscape:transform-center-x="0.26274431"
           inkscape:transform-center-y="0.18852023"
           transform="matrix(3.3048289,0,0,3.1349203,-141.65066,-245.59536)" /><path
           sodipodi:type="star"
           style="opacity:1;fill:#584f4f;fill-opacity:1;stroke:none;stroke-width:0.0603982;stroke-dasharray:none;stroke-dashoffset:0;stroke-opacity:1"
           id="path122"
           inkscape:flatsided="true"
           sodipodi:sides="4"
           sodipodi:cx="57.640205"
           sodipodi:cy="23.620722"
           sodipodi:r1="0.86761874"
           sodipodi:r2="0.6134991"
           sodipodi:arg1="0.86217005"
           sodipodi:arg2="1.6475682"
           inkscape:rounded="0.06"
           inkscape:randomized="0.412"
           d="m 57.939053,24.023864 c -0.05921,0.06206 -1.031124,0.137812 -1.04392,0.06918 -0.0128,-0.06863 0.481465,-0.893028 0.520573,-0.954053 0.03911,-0.06102 0.641922,-0.149556 0.69012,-0.08544 0.0482,0.06412 -0.107564,0.908243 -0.166773,0.970306 z"
           inkscape:transform-center-x="0.8147452"
           inkscape:transform-center-y="0.029115348"
           transform="matrix(3.3048289,0,0,3.1349203,-144.52747,-242.16636)" /><path
           sodipodi:type="star"
           style="opacity:1;fill:#584f4f;fill-opacity:1;stroke:none;stroke-width:0.0603982;stroke-dasharray:none;stroke-dashoffset:0;stroke-opacity:1"
           id="path123"
           inkscape:flatsided="true"
           sodipodi:sides="4"
           sodipodi:cx="54.322956"
           sodipodi:cy="24.844107"
           sodipodi:r1="0.88592625"
           sodipodi:r2="0.62644446"
           sodipodi:arg1="-2.9546134"
           sodipodi:arg2="-2.1692152"
           inkscape:rounded="0.06"
           inkscape:randomized="0.412"
           d="m 53.510058,24.3798 c -0.03225,-0.07293 0.63229,-0.402908 0.707859,-0.37393 0.07557,0.02898 0.675164,1.184162 0.706256,1.267508 0.03109,0.08334 -0.981867,0.308949 -1.069875,0.29427 -0.08801,-0.01468 -0.31199,-1.114922 -0.34424,-1.187848 z"
           inkscape:transform-center-x="-0.35698117"
           inkscape:transform-center-y="0.69648018"
           transform="matrix(3.3048289,0,0,3.1349203,-143.63272,-247.44036)" /><path
           sodipodi:type="star"
           style="opacity:1;fill:#584f4f;fill-opacity:1;stroke:none;stroke-width:0.0603982;stroke-dasharray:none;stroke-dashoffset:0;stroke-opacity:1"
           id="path124"
           inkscape:flatsided="true"
           sodipodi:sides="4"
           sodipodi:cx="52.67609"
           sodipodi:cy="23.808935"
           sodipodi:r1="0.59981334"
           sodipodi:r2="0.42413211"
           sodipodi:arg1="1.1246908"
           sodipodi:arg2="1.9100889"
           inkscape:rounded="0.06"
           inkscape:randomized="0.412"
           d="m 52.825702,24.539018 c -0.04182,0.02893 -0.529658,-0.599715 -0.552569,-0.641342 -0.02291,-0.04163 0.113462,-0.613855 0.158147,-0.635728 0.04469,-0.02187 0.795094,0.321327 0.824308,0.374429 0.02921,0.0531 -0.388063,0.873706 -0.429886,0.902641 z"
           inkscape:transform-center-x="0.045721582"
           inkscape:transform-center-y="0.25455317"
           transform="matrix(3.3048289,0,0,3.1349203,-142.66143,-245.78032)" /><path
           sodipodi:type="star"
           style="opacity:1;fill:#584f4f;fill-opacity:1;stroke:none;stroke-width:0.0430601;stroke-dasharray:none;stroke-dashoffset:0;stroke-opacity:1"
           id="path125"
           inkscape:flatsided="true"
           sodipodi:sides="4"
           sodipodi:cx="52.581989"
           sodipodi:cy="25.055847"
           sodipodi:r1="0.35911822"
           sodipodi:r2="0.25393492"
           sodipodi:arg1="0.55165498"
           sodipodi:arg2="1.3370531"
           inkscape:rounded="0.06"
           inkscape:randomized="0.412"
           d="m 52.896992,25.320319 c -0.0019,0.02706 -0.57211,-0.0044 -0.596953,-0.0091 -0.02484,-0.0047 -0.150978,-0.274915 -0.133709,-0.298877 0.01727,-0.02396 0.59189,-0.42929 0.61261,-0.406155 0.02072,0.02313 0.119986,0.687096 0.118052,0.714154 z"
           inkscape:transform-center-x="0.4815682"
           inkscape:transform-center-y="0.29575729"
           transform="matrix(4.4727337,0,0,4.557234,-203.35159,-281.55049)" /><path
           sodipodi:type="star"
           style="opacity:1;fill:#584f4f;fill-opacity:1;stroke:none;stroke-width:0.0603982;stroke-dasharray:none;stroke-dashoffset:0;stroke-opacity:1"
           id="path126"
           inkscape:flatsided="true"
           sodipodi:sides="4"
           sodipodi:cx="56.369774"
           sodipodi:cy="23.691301"
           sodipodi:r1="0.69193852"
           sodipodi:r2="0.48927444"
           sodipodi:arg1="0.95449939"
           sodipodi:arg2="1.7398976"
           inkscape:rounded="0.06"
           inkscape:randomized="0.412"
           d="m 56.672738,24.139192 c -0.04687,0.02525 -0.563901,0.05576 -0.623323,0.02236 -0.05942,-0.0334 -0.268442,-1.162294 -0.204971,-1.188815 0.06347,-0.02652 0.802262,0.257734 0.819109,0.315504 0.01685,0.05777 0.05605,0.825699 0.0092,0.850953 z"
           inkscape:transform-center-x="-0.0055114141"
           inkscape:transform-center-y="0.25467553"
           transform="matrix(1.4297738,-2.8263525,2.9795371,1.3562659,-117.18167,-46.223377)" /><path
           sodipodi:type="star"
           style="opacity:1;fill:#584f4f;fill-opacity:1;stroke:none;stroke-width:0.0603982;stroke-dasharray:none;stroke-dashoffset:0;stroke-opacity:1"
           id="path127"
           inkscape:flatsided="true"
           sodipodi:sides="4"
           sodipodi:cx="57.640205"
           sodipodi:cy="23.620722"
           sodipodi:r1="0.86761874"
           sodipodi:r2="0.6134991"
           sodipodi:arg1="0.86217005"
           sodipodi:arg2="1.6475682"
           inkscape:rounded="0.06"
           inkscape:randomized="0.412"
           d="m 57.939053,24.023864 c -0.05921,0.06206 -1.031124,0.137812 -1.04392,0.06918 -0.0128,-0.06863 0.481465,-0.893028 0.520573,-0.954053 0.03911,-0.06102 0.641922,-0.149556 0.69012,-0.08544 0.0482,0.06412 -0.107564,0.908243 -0.166773,0.970306 z"
           inkscape:transform-center-x="0.12724978"
           inkscape:transform-center-y="0.60324252"
           transform="matrix(2.1998948,-2.3394484,2.4662435,2.0867934,-137.98126,-87.079464)" /><path
           sodipodi:type="star"
           style="opacity:1;fill:#584f4f;fill-opacity:1;stroke:none;stroke-width:0.0603982;stroke-dasharray:none;stroke-dashoffset:0;stroke-opacity:1"
           id="path128"
           inkscape:flatsided="true"
           sodipodi:sides="4"
           sodipodi:cx="55.311073"
           sodipodi:cy="25.596958"
           sodipodi:r1="0.50895852"
           sodipodi:r2="0.35988802"
           sodipodi:arg1="0.5880026"
           sodipodi:arg2="1.3734008"
           inkscape:rounded="0.06"
           inkscape:randomized="0.412"
           d="m 55.643538,25.690459 c -0.02141,0.03835 -0.454544,0.464934 -0.497661,0.462623 -0.04312,-0.0023 -0.348099,-0.66438 -0.310026,-0.695861 0.03807,-0.03148 0.860622,-0.268119 0.894859,-0.247019 0.03424,0.0211 -0.06576,0.441907 -0.08717,0.480257 z"
           inkscape:transform-center-x="0.34255455"
           inkscape:transform-center-y="-0.46425308"
           transform="matrix(0.60640058,-3.0816948,3.2487186,0.57522418,-72.101817,-19.418211)" /><path
           sodipodi:type="star"
           style="opacity:1;fill:#584f4f;fill-opacity:1;stroke:none;stroke-width:0.0595189;stroke-dasharray:none;stroke-dashoffset:0;stroke-opacity:1"
           id="path129"
           inkscape:flatsided="true"
           sodipodi:sides="4"
           sodipodi:cx="52.581989"
           sodipodi:cy="25.055847"
           sodipodi:r1="0.35911822"
           sodipodi:r2="0.25393492"
           sodipodi:arg1="0.55165498"
           sodipodi:arg2="1.3370531"
           inkscape:rounded="0.06"
           inkscape:randomized="0.412"
           d="m 52.896992,25.320319 c -0.0019,0.02706 -0.57211,-0.0044 -0.596953,-0.0091 -0.02484,-0.0047 -0.150978,-0.274915 -0.133709,-0.298877 0.01727,-0.02396 0.59189,-0.42929 0.61261,-0.406155 0.02072,0.02313 0.119986,0.687096 0.118052,0.714154 z"
           inkscape:transform-center-x="0.37869038"
           inkscape:transform-center-y="0.1968589"
           transform="matrix(3.5171751,0,0,3.0333263,-149.77309,-251.1348)" /><path
           sodipodi:type="star"
           style="opacity:1;fill:#584f4f;fill-opacity:1;stroke:none;stroke-width:0.217915;stroke-dasharray:none;stroke-dashoffset:0;stroke-opacity:1"
           id="path130"
           inkscape:flatsided="true"
           sodipodi:sides="4"
           sodipodi:cx="56.910885"
           sodipodi:cy="27.220295"
           sodipodi:r1="0.85638171"
           sodipodi:r2="0.60555333"
           sodipodi:arg1="-0.92180077"
           sodipodi:arg2="-0.1364026"
           inkscape:rounded="0.06"
           inkscape:randomized="0.412"
           d="m 57.378976,26.243798 c 0.08671,0.01125 0.44013,1.122527 0.376826,1.175098 -0.0633,0.05257 -1.016774,0.553348 -1.057411,0.504433 -0.04064,-0.04891 -0.385661,-1.106925 -0.376826,-1.175098 0.0088,-0.06817 0.970702,-0.515687 1.057411,-0.504433 z"
           inkscape:transform-center-x="0.042741298"
           inkscape:transform-center-y="-0.11855495"
           transform="matrix(0.59311593,0.61412187,-0.38703043,0.94112873,26.189809,-232.62846)" /><path
           sodipodi:type="star"
           style="opacity:1;fill:#584f4f;fill-opacity:1;stroke:none;stroke-width:0.0892727;stroke-dasharray:none;stroke-dashoffset:0;stroke-opacity:1"
           id="path131"
           inkscape:flatsided="true"
           sodipodi:sides="4"
           sodipodi:cx="56.910885"
           sodipodi:cy="27.220295"
           sodipodi:r1="0.85638171"
           sodipodi:r2="0.60555333"
           sodipodi:arg1="-0.92180077"
           sodipodi:arg2="-0.1364026"
           inkscape:rounded="0.06"
           inkscape:randomized="0.412"
           d="m 57.378976,26.243798 c 0.08671,0.01125 0.44013,1.122527 0.376826,1.175098 -0.0633,0.05257 -1.016774,0.553348 -1.057411,0.504433 -0.04064,-0.04891 -0.385661,-1.106925 -0.376826,-1.175098 0.0088,-0.06817 0.970702,-0.515687 1.057411,-0.504433 z"
           inkscape:transform-center-x="0.0800996"
           inkscape:transform-center-y="0.31048437"
           transform="matrix(-0.14975611,-2.2247897,2.0388738,-1.3774138,-3.9358248,-3.6585705)" /><path
           sodipodi:type="star"
           style="opacity:1;fill:#584f4f;fill-opacity:1;stroke:none;stroke-width:0.217915;stroke-dasharray:none;stroke-dashoffset:0;stroke-opacity:1"
           id="path132"
           inkscape:flatsided="true"
           sodipodi:sides="4"
           sodipodi:cx="56.910885"
           sodipodi:cy="27.220295"
           sodipodi:r1="0.85638171"
           sodipodi:r2="0.60555333"
           sodipodi:arg1="-0.92180077"
           sodipodi:arg2="-0.1364026"
           inkscape:rounded="0.06"
           inkscape:randomized="0.412"
           d="m 57.378976,26.243798 c 0.08671,0.01125 0.44013,1.122527 0.376826,1.175098 -0.0633,0.05257 -1.016774,0.553348 -1.057411,0.504433 -0.04064,-0.04891 -0.385661,-1.106925 -0.376826,-1.175098 0.0088,-0.06817 0.970702,-0.515687 1.057411,-0.504433 z"
           inkscape:transform-center-x="0.042740417"
           inkscape:transform-center-y="-0.11854786"
           transform="matrix(0.59311593,0.61412187,-0.38703043,0.94112873,13.516323,-227.31818)" /><path
           sodipodi:type="star"
           style="opacity:1;fill:#584f4f;fill-opacity:1;stroke:none;stroke-width:0.217915;stroke-dasharray:none;stroke-dashoffset:0;stroke-opacity:1"
           id="path133"
           inkscape:flatsided="true"
           sodipodi:sides="4"
           sodipodi:cx="56.910885"
           sodipodi:cy="27.220295"
           sodipodi:r1="0.85638171"
           sodipodi:r2="0.60555333"
           sodipodi:arg1="-0.92180077"
           sodipodi:arg2="-0.1364026"
           inkscape:rounded="0.06"
           inkscape:randomized="0.412"
           d="m 57.378976,26.243798 c 0.08671,0.01125 0.44013,1.122527 0.376826,1.175098 -0.0633,0.05257 -1.016774,0.553348 -1.057411,0.504433 -0.04064,-0.04891 -0.385661,-1.106925 -0.376826,-1.175098 0.0088,-0.06817 0.970702,-0.515687 1.057411,-0.504433 z"
           inkscape:transform-center-x="0.11178666"
           inkscape:transform-center-y="-0.055302141"
           transform="matrix(0.87172712,0.09954952,0.35251953,0.95325178,-28.458178,-205.24701)" /><path
           sodipodi:type="star"
           style="opacity:1;fill:#584f4f;fill-opacity:1;stroke:none;stroke-width:0.113584;stroke-dasharray:none;stroke-dashoffset:0;stroke-opacity:1"
           id="path134"
           inkscape:flatsided="true"
           sodipodi:sides="4"
           sodipodi:cx="52.581989"
           sodipodi:cy="25.055847"
           sodipodi:r1="0.35911822"
           sodipodi:r2="0.25393492"
           sodipodi:arg1="0.55165498"
           sodipodi:arg2="1.3370531"
           inkscape:rounded="0.06"
           inkscape:randomized="0.412"
           d="m 52.896992,25.320319 c -0.0019,0.02706 -0.57211,-0.0044 -0.596953,-0.0091 -0.02484,-0.0047 -0.150978,-0.274915 -0.133709,-0.298877 0.01727,-0.02396 0.59189,-0.42929 0.61261,-0.406155 0.02072,0.02313 0.119986,0.687096 0.118052,0.714154 z"
           inkscape:transform-center-x="0.19578281"
           inkscape:transform-center-y="0.10455607"
           transform="matrix(1.8184045,0,0,1.6110126,-65.122537,-203.67404)" /><path
           sodipodi:type="star"
           style="opacity:1;fill:#584f4f;fill-opacity:1;stroke:none;stroke-width:0.113584;stroke-dasharray:none;stroke-dashoffset:0;stroke-opacity:1"
           id="path136"
           inkscape:flatsided="true"
           sodipodi:sides="4"
           sodipodi:cx="52.581989"
           sodipodi:cy="25.055847"
           sodipodi:r1="0.35911822"
           sodipodi:r2="0.25393492"
           sodipodi:arg1="0.55165498"
           sodipodi:arg2="1.3370531"
           inkscape:rounded="0.06"
           inkscape:randomized="0.412"
           d="m 52.896992,25.320319 c -0.0019,0.02706 -0.57211,-0.0044 -0.596953,-0.0091 -0.02484,-0.0047 -0.150978,-0.274915 -0.133709,-0.298877 0.01727,-0.02396 0.59189,-0.42929 0.61261,-0.406155 0.02072,0.02313 0.119986,0.687096 0.118052,0.714154 z"
           inkscape:transform-center-x="0.1957839"
           inkscape:transform-center-y="0.10455339"
           transform="matrix(1.8184045,0,0,1.6110126,-58.824671,-203.45278)" /><path
           sodipodi:type="star"
           style="opacity:1;fill:#584f4f;fill-opacity:1;stroke:none;stroke-width:0.113584;stroke-dasharray:none;stroke-dashoffset:0;stroke-opacity:1"
           id="path137"
           inkscape:flatsided="true"
           sodipodi:sides="4"
           sodipodi:cx="52.581989"
           sodipodi:cy="25.055847"
           sodipodi:r1="0.35911822"
           sodipodi:r2="0.25393492"
           sodipodi:arg1="0.55165498"
           sodipodi:arg2="1.3370531"
           inkscape:rounded="0.06"
           inkscape:randomized="0.412"
           d="m 52.896992,25.320319 c -0.0019,0.02706 -0.57211,-0.0044 -0.596953,-0.0091 -0.02484,-0.0047 -0.150978,-0.274915 -0.133709,-0.298877 0.01727,-0.02396 0.59189,-0.42929 0.61261,-0.406155 0.02072,0.02313 0.119986,0.687096 0.118052,0.714154 z"
           inkscape:transform-center-x="0.1957839"
           inkscape:transform-center-y="0.10455339"
           transform="matrix(1.8184045,0,0,1.6110126,-58.824671,-203.45278)" /><rect
           style="opacity:1;fill:none;stroke:#3a3a3e;stroke-width:0.194407;stroke-dasharray:none;stroke-dashoffset:0;stroke-opacity:1"
           id="rect137"
           width="20.98126"
           height="16.747419"
           x="29.335651"
           y="-179.25684" /></g><path
         style="font-variation-settings:normal;display:inline;opacity:1;vector-effect:none;fill:none;fill-opacity:1;stroke:#000000;stroke-width:0.6;stroke-linecap:butt;stroke-linejoin:miter;stroke-miterlimit:4;stroke-dasharray:3.6, 3.6;stroke-dashoffset:0;stroke-opacity:1;-inkscape-stroke:none;marker-end:url(#marker299-1);stop-color:#000000;stop-opacity:1"
         d="m 95.939021,486.89136 c 0,0 10.718279,-6.65332 19.651839,-8.4459 7.93737,-1.59267 16.62694,-0.57869 24.33735,0.90175 15.5801,2.99146 42.59745,37.25892 47.85113,41.3628"
         id="path140"
         sodipodi:nodetypes="cssc" /><path
         style="font-variation-settings:normal;display:inline;vector-effect:none;fill:none;fill-opacity:1;stroke:#000000;stroke-width:0.266092;stroke-linecap:butt;stroke-linejoin:miter;stroke-miterlimit:4;stroke-dasharray:1.59655, 1.59655;stroke-dashoffset:0;stroke-opacity:1;-inkscape-stroke:none;stop-color:#000000"
         d="m 17.415912,-216.07733 c 2.040741,3.54149 4.081482,7.08298 6.122222,10.62447"
         id="path141"
         inkscape:path-effect="#path-effect142"
         inkscape:original-d="m 17.415912,-216.07733 c 2.04074,3.54149 4.081483,7.08298 6.122222,10.62447"
         transform="matrix(2.25,0,0,2.2597228,109.23756,959.12534)"
         sodipodi:nodetypes="cc" /><g
         id="g173"
         style="font-size:2.11667px;line-height:4px;font-family:'Times New Roman';-inkscape-font-specification:'Times New Roman, Normal';letter-spacing:0px;word-spacing:0px;fill:#e7f3f8;fill-opacity:1;stroke:#000000;stroke-width:0.33;stroke-dasharray:none;stroke-opacity:1"
         aria-label="Fdissolved"
         transform="translate(481.51769,-34.117377)"><path
           style="font-weight:bold;font-size:14.1111px;-inkscape-font-specification:'Times New Roman, Bold';fill:#e7f3f8;fill-opacity:1;stroke:#000000;stroke-width:0.33;stroke-dasharray:none;stroke-opacity:1"
           d="m -282.25706,561.60364 v 3.83784 h 0.26872 q 0.62012,0 1.01286,-0.18604 0.39274,-0.18603 0.66146,-0.627 0.2756,-0.44098 0.35829,-1.19201 h 0.24115 v 4.69222 h -0.24115 q -0.13092,-1.32981 -0.71658,-1.75011 -0.57878,-0.42719 -1.31603,-0.42719 h -0.26872 v 2.85943 q 0,0.71658 0.0758,0.89572 0.0827,0.17915 0.31005,0.31695 0.23427,0.13091 0.62701,0.13091 h 0.31006 v 0.25494 h -4.88514 v -0.25494 h 0.31006 q 0.40652,0 0.65456,-0.14469 0.17915,-0.0965 0.27561,-0.33073 0.0758,-0.16536 0.0758,-0.86816 v -6.14605 q 0,-0.71658 -0.0758,-0.89572 -0.0758,-0.17915 -0.31006,-0.31006 -0.22737,-0.1378 -0.62011,-0.1378 h -0.31006 v -0.25494 h 7.88237 v 2.68028 h -0.2825 q -0.0965,-0.94395 -0.49609,-1.39871 -0.39274,-0.45475 -1.14377,-0.64078 -0.41341,-0.10336 -1.52962,-0.10336 z"
           id="path172" /><path
           style="font-style:italic;font-size:9.17221px;-inkscape-font-specification:'Times New Roman, Italic';baseline-shift:sub;fill:#e7f3f8;fill-opacity:1;stroke:#000000;stroke-width:0.33;stroke-dasharray:none;stroke-opacity:1"
           d="m -272.5543,566.86293 -1.54064,5.28477 q -0.12541,0.42994 -0.12541,0.5643 0,0.0448 0.0358,0.0851 0.0403,0.0403 0.0806,0.0403 0.0582,0 0.13884,-0.0582 0.15227,-0.10749 0.51056,-0.53743 l 0.15227,0.094 q -0.32246,0.44786 -0.65388,0.72553 -0.32694,0.27768 -0.61357,0.27768 -0.15227,0 -0.2508,-0.10749 -0.0985,-0.10748 -0.0985,-0.30454 0,-0.25529 0.13436,-0.68523 l 0.17466,-0.55535 q -0.64939,1.00321 -1.18235,1.38837 -0.36725,0.26424 -0.70314,0.26424 -0.34038,0 -0.59566,-0.30007 -0.2508,-0.30454 -0.2508,-0.82406 0,-0.66732 0.42547,-1.4242 0.42547,-0.75689 1.12413,-1.23162 0.55087,-0.38069 1.01217,-0.38069 0.24184,0 0.41651,0.0985 0.17466,0.0985 0.34485,0.32694 l 0.43891,-1.55856 q 0.0493,-0.16571 0.0806,-0.26424 0.0537,-0.17914 0.0537,-0.29559 0,-0.0941 -0.0672,-0.15675 -0.094,-0.0761 -0.24185,-0.0761 -0.10301,0 -0.34037,0.0313 v -0.16571 z m -1.66157,3.17982 q 0,-0.28664 -0.16571,-0.4613 -0.1657,-0.17467 -0.42099,-0.17467 -0.5643,0 -1.17787,0.93155 -0.60909,0.93156 -0.60909,1.78249 0,0.3359 0.14779,0.51505 0.14779,0.17466 0.35381,0.17466 0.46578,0 1.16892,-1.00769 0.70314,-1.00769 0.70314,-1.76009 z m 3.33657,-2.64239 q 0.18811,0 0.31799,0.12988 0.12988,0.12988 0.12988,0.31798 0,0.18363 -0.13436,0.31798 -0.12988,0.12988 -0.31351,0.12988 -0.18362,0 -0.31798,-0.12988 -0.12988,-0.13435 -0.12988,-0.31798 0,-0.1881 0.12988,-0.31798 0.12988,-0.12988 0.31798,-0.12988 z m 0.0582,1.77801 -0.88677,3.13951 q -0.0896,0.31799 -0.0896,0.38069 0,0.0716 0.0403,0.11644 0.0448,0.0448 0.10301,0.0448 0.0672,0 0.16123,-0.0717 0.25528,-0.20154 0.51504,-0.57326 l 0.15676,0.103 q -0.30455,0.46578 -0.71658,0.78376 -0.30455,0.23737 -0.58222,0.23737 -0.18363,0 -0.30007,-0.10749 -0.11645,-0.11196 -0.11645,-0.27767 0,-0.16571 0.11197,-0.55087 l 0.58222,-2.00642 q 0.14332,-0.49265 0.14332,-0.61805 0,-0.0985 -0.0717,-0.16123 -0.0672,-0.0627 -0.1881,-0.0627 -0.0985,0 -0.40756,0.0493 v -0.17466 z m 3.76651,0 -0.27319,1.37494 h -0.16571 q -0.0224,-0.60014 -0.25528,-0.87333 -0.23289,-0.2732 -0.57774,-0.2732 -0.27768,0 -0.44339,0.15228 -0.16123,0.15227 -0.16123,0.36724 0,0.1478 0.0627,0.28215 0.0672,0.13436 0.28663,0.37621 0.58223,0.63596 0.75241,0.95842 0.17019,0.32246 0.17019,0.60909 0,0.46578 -0.38964,0.82855 -0.38516,0.35829 -0.97634,0.35829 -0.32246,0 -0.74345,-0.15227 -0.14779,-0.0538 -0.22841,-0.0538 -0.20154,0 -0.30454,0.20602 h -0.16571 l 0.27319,-1.45107 h 0.16571 q 0.0269,0.68075 0.28215,0.9629 0.25529,0.28215 0.69867,0.28215 0.34037,0 0.53743,-0.1881 0.20154,-0.19258 0.20154,-0.47025 0,-0.17915 -0.0717,-0.33142 -0.1254,-0.26872 -0.52847,-0.74345 -0.3986,-0.47474 -0.51505,-0.7121 -0.11196,-0.23737 -0.11196,-0.47474 0,-0.43442 0.3135,-0.73449 0.31798,-0.30007 0.81511,-0.30007 0.14332,0 0.25976,0.0224 0.0627,0.0134 0.29111,0.103 0.23289,0.0851 0.30903,0.0851 0.19258,0 0.32246,-0.2105 z m 3.56946,0 -0.27319,1.37494 h -0.16571 q -0.0224,-0.60014 -0.25528,-0.87333 -0.23289,-0.2732 -0.57775,-0.2732 -0.27767,0 -0.44338,0.15228 -0.16123,0.15227 -0.16123,0.36724 0,0.1478 0.0627,0.28215 0.0672,0.13436 0.28663,0.37621 0.58222,0.63596 0.75241,0.95842 0.17019,0.32246 0.17019,0.60909 0,0.46578 -0.38964,0.82855 -0.38516,0.35829 -0.97634,0.35829 -0.32246,0 -0.74345,-0.15227 -0.1478,-0.0538 -0.22841,-0.0538 -0.20154,0 -0.30455,0.20602 h -0.16571 l 0.2732,-1.45107 h 0.16571 q 0.0269,0.68075 0.28215,0.9629 0.25528,0.28215 0.69867,0.28215 0.34037,0 0.53743,-0.1881 0.20154,-0.19258 0.20154,-0.47025 0,-0.17915 -0.0717,-0.33142 -0.1254,-0.26872 -0.52848,-0.74345 -0.39859,-0.47474 -0.51504,-0.7121 -0.11196,-0.23737 -0.11196,-0.47474 0,-0.43442 0.3135,-0.73449 0.31798,-0.30007 0.81511,-0.30007 0.14331,0 0.25976,0.0224 0.0627,0.0134 0.29111,0.103 0.23289,0.0851 0.30902,0.0851 0.19258,0 0.32246,-0.2105 z m 4.4831,1.40181 q 0,0.67179 -0.35829,1.33015 -0.35381,0.65836 -0.98977,1.04352 -0.63597,0.38516 -1.2361,0.38516 -0.61357,0 -1.00321,-0.38964 -0.38516,-0.39412 -0.38516,-1.01665 0,-0.65835 0.3762,-1.32119 0.38068,-0.66284 1.01217,-1.048 0.63596,-0.38516 1.22714,-0.38516 0.59118,0 0.97186,0.38964 0.38516,0.38964 0.38516,1.01217 z m -0.74345,-0.30902 q 0,-0.41652 -0.20602,-0.63597 -0.20154,-0.22393 -0.524,-0.22393 -0.65835,0 -1.2137,0.94499 -0.55087,0.94051 -0.55087,1.87206 0,0.42547 0.21497,0.65836 0.21498,0.22841 0.54192,0.22841 0.63148,0 1.18235,-0.93603 0.55535,-0.94051 0.55535,-1.90789 z m 3.81578,-3.40823 -1.53169,5.32955 q -0.11196,0.3986 -0.11196,0.48817 0,0.0672 0.0403,0.11197 0.0448,0.0448 0.10749,0.0448 0.0851,0 0.18362,-0.0761 0.23289,-0.18363 0.48817,-0.56879 l 0.13436,0.13884 q -0.42547,0.60013 -0.78376,0.8375 -0.26423,0.17019 -0.5016,0.17019 -0.17019,0 -0.28663,-0.11645 -0.11197,-0.11644 -0.11197,-0.26871 0,-0.16123 0.14332,-0.66284 l 1.2137,-4.20094 q 0.1478,-0.51504 0.1478,-0.59118 0,-0.10749 -0.0851,-0.17467 -0.0851,-0.0716 -0.26423,-0.0716 -0.10301,0 -0.31351,0.0313 v -0.16571 z m 0.0179,2.59312 1.29433,-0.27768 q 0.13883,0.33142 0.22393,0.67627 0.12092,0.50609 0.19706,1.20027 0.0358,0.34934 0.0985,1.47795 0.55982,-0.61805 0.66731,-0.76585 0.59118,-0.80167 0.68075,-0.94051 0.14779,-0.23736 0.20602,-0.41651 0.0493,-0.13436 0.0493,-0.25528 0,-0.11644 -0.21049,-0.26872 -0.20602,-0.15227 -0.20602,-0.34037 0,-0.14332 0.11196,-0.25528 0.11645,-0.11197 0.2732,-0.11197 0.1881,0 0.33142,0.15675 0.14331,0.15228 0.14331,0.38069 0,0.22841 -0.0717,0.4389 -0.11645,0.34038 -0.43443,0.83302 -0.31798,0.48817 -1.0256,1.31224 -0.0896,0.10301 -0.99426,1.03904 h -0.16571 q -0.10748,-2.83497 -0.44786,-3.53811 -0.11196,-0.22841 -0.37172,-0.22841 -0.11197,0 -0.31798,0.0403 z m 4.96679,2.08703 q -0.0313,0.22393 -0.0313,0.37173 0,0.3986 0.28216,0.68075 0.28215,0.27767 0.68522,0.27767 0.32246,0 0.61805,-0.12988 0.30007,-0.13436 0.88677,-0.5867 l 0.0941,0.12988 q -1.06143,1.05248 -2.02433,1.05248 -0.65388,0 -0.9853,-0.41203 -0.33142,-0.41204 -0.33142,-0.90916 0,-0.66732 0.41203,-1.36598 0.41204,-0.69867 1.03456,-1.08383 0.62253,-0.38964 1.28089,-0.38964 0.47473,0 0.70314,0.19258 0.22841,0.19258 0.22841,0.45682 0,0.37173 -0.29559,0.7121 -0.38964,0.44339 -1.14652,0.71658 -0.50161,0.18362 -1.41077,0.28663 z m 0.0314,-0.21945 q 0.66284,-0.0761 1.07935,-0.25976 0.55087,-0.24632 0.82407,-0.5867 0.27767,-0.34485 0.27767,-0.65388 0,-0.1881 -0.12092,-0.30454 -0.11645,-0.11645 -0.3359,-0.11645 -0.45682,0 -0.97186,0.48817 -0.51056,0.48369 -0.75241,1.43316 z m 7.90924,-4.4607 -1.54064,5.28477 q -0.1254,0.42994 -0.1254,0.5643 0,0.0448 0.0358,0.0851 0.0403,0.0403 0.0806,0.0403 0.0582,0 0.13884,-0.0582 0.15227,-0.10749 0.51056,-0.53743 l 0.15227,0.094 q -0.32246,0.44786 -0.65387,0.72553 -0.32694,0.27768 -0.61358,0.27768 -0.15227,0 -0.2508,-0.10749 -0.0985,-0.10748 -0.0985,-0.30454 0,-0.25529 0.13436,-0.68523 l 0.17467,-0.55535 q -0.6494,1.00321 -1.18236,1.38837 -0.36724,0.26424 -0.70314,0.26424 -0.34038,0 -0.59566,-0.30007 -0.2508,-0.30454 -0.2508,-0.82406 0,-0.66732 0.42547,-1.4242 0.42547,-0.75689 1.12413,-1.23162 0.55087,-0.38069 1.01217,-0.38069 0.24184,0 0.41651,0.0985 0.17467,0.0985 0.34485,0.32694 l 0.43891,-1.55856 q 0.0493,-0.16571 0.0806,-0.26424 0.0537,-0.17914 0.0537,-0.29559 0,-0.0941 -0.0672,-0.15675 -0.0941,-0.0761 -0.24185,-0.0761 -0.10301,0 -0.34037,0.0313 v -0.16571 z m -1.66156,3.17982 q 0,-0.28664 -0.16571,-0.4613 -0.16571,-0.17467 -0.42099,-0.17467 -0.56431,0 -1.17788,0.93155 -0.60909,0.93156 -0.60909,1.78249 0,0.3359 0.14779,0.51505 0.1478,0.17466 0.35381,0.17466 0.46578,0 1.16892,-1.00769 0.70315,-1.00769 0.70315,-1.76009 z"
           id="path173" /></g><g
         id="g175"
         style="font-size:2.11667px;line-height:4px;font-family:'Times New Roman';-inkscape-font-specification:'Times New Roman, Normal';letter-spacing:0px;word-spacing:0px;fill:#808080;fill-opacity:1;stroke:#000000;stroke-width:0.33;stroke-dasharray:none;stroke-opacity:1"
         aria-label="Fbedrock"
         transform="translate(361.56743,3.6766549)"><path
           style="font-weight:bold;font-size:14.1111px;-inkscape-font-specification:'Times New Roman, Bold';fill:#808080;fill-opacity:1;stroke:#000000;stroke-width:0.33;stroke-dasharray:none;stroke-opacity:1"
           d="m -282.25706,491.60007 v 3.83784 h 0.26872 q 0.62012,0 1.01286,-0.18604 0.39274,-0.18603 0.66146,-0.627 0.2756,-0.44098 0.35829,-1.19201 h 0.24115 v 4.69222 h -0.24115 q -0.13092,-1.32981 -0.71658,-1.75011 -0.57878,-0.42719 -1.31603,-0.42719 h -0.26872 v 2.85943 q 0,0.71658 0.0758,0.89572 0.0827,0.17915 0.31005,0.31695 0.23427,0.13091 0.62701,0.13091 h 0.31006 v 0.25494 h -4.88514 v -0.25494 h 0.31006 q 0.40652,0 0.65456,-0.14469 0.17915,-0.0965 0.27561,-0.33073 0.0758,-0.16536 0.0758,-0.86816 v -6.14605 q 0,-0.71658 -0.0758,-0.89572 -0.0758,-0.17915 -0.31006,-0.31006 -0.22737,-0.1378 -0.62011,-0.1378 h -0.31006 v -0.25494 h 7.88237 v 2.68028 h -0.2825 q -0.0965,-0.94395 -0.49609,-1.39871 -0.39274,-0.45475 -1.14377,-0.64078 -0.41341,-0.10336 -1.52962,-0.10336 z"
           id="path174" /><path
           style="font-style:italic;font-size:9.17221px;-inkscape-font-specification:'Times New Roman, Italic';baseline-shift:sub;fill:#808080;fill-opacity:1;stroke:#000000;stroke-width:0.33;stroke-dasharray:none;stroke-opacity:1"
           d="m -274.86974,496.85936 -0.88229,3.09472 q 0.42994,-0.44786 0.74793,-0.61357 0.32246,-0.16571 0.67179,-0.16571 0.49265,0 0.80615,0.32694 0.3135,0.32694 0.3135,0.88677 0,0.72105 -0.41203,1.43763 -0.41203,0.7121 -1.03456,1.1107 -0.62253,0.3986 -1.22714,0.3986 -0.67627,0 -1.38837,-0.50609 l 1.3615,-4.68911 q 0.15675,-0.54191 0.15675,-0.63596 0,-0.11645 -0.0717,-0.17467 -0.10301,-0.0806 -0.30455,-0.0806 -0.094,0 -0.28663,0.0313 v -0.17019 z m -1.73323,6.01926 q 0.44786,0.24632 0.78824,0.24632 0.39412,0 0.81511,-0.28663 0.42546,-0.29111 0.73449,-0.97634 0.3135,-0.68523 0.3135,-1.38389 0,-0.41203 -0.20601,-0.64492 -0.20154,-0.23289 -0.47922,-0.23289 -0.41651,0 -0.81511,0.3359 -0.39859,0.33141 -0.56878,0.92707 z m 4.76525,-1.33911 q -0.0314,0.22393 -0.0314,0.37173 0,0.39859 0.28215,0.68075 0.28215,0.27767 0.68523,0.27767 0.32246,0 0.61805,-0.12988 0.30007,-0.13436 0.88677,-0.5867 l 0.094,0.12988 q -1.06144,1.05248 -2.02434,1.05248 -0.65388,0 -0.98529,-0.41203 -0.33142,-0.41204 -0.33142,-0.90916 0,-0.66732 0.41203,-1.36598 0.41203,-0.69867 1.03456,-1.08383 0.62253,-0.38964 1.28089,-0.38964 0.47473,0 0.70314,0.19258 0.22841,0.19258 0.22841,0.45682 0,0.37173 -0.29559,0.7121 -0.38964,0.44339 -1.14653,0.71658 -0.5016,0.18362 -1.41076,0.28663 z m 0.0313,-0.21945 q 0.66283,-0.0761 1.07935,-0.25976 0.55087,-0.24632 0.82406,-0.5867 0.27768,-0.34485 0.27768,-0.65388 0,-0.1881 -0.12093,-0.30454 -0.11644,-0.11645 -0.33589,-0.11645 -0.45682,0 -0.97186,0.48817 -0.51057,0.48369 -0.75241,1.43316 z m 7.90924,-4.4607 -1.54065,5.28477 q -0.1254,0.42994 -0.1254,0.5643 0,0.0448 0.0358,0.0851 0.0403,0.0403 0.0806,0.0403 0.0582,0 0.13883,-0.0582 0.15228,-0.10749 0.51057,-0.53743 l 0.15227,0.094 q -0.32246,0.44786 -0.65388,0.72553 -0.32694,0.27768 -0.61357,0.27768 -0.15227,0 -0.2508,-0.10749 -0.0985,-0.10749 -0.0985,-0.30454 0,-0.25529 0.13436,-0.68523 l 0.17466,-0.55535 q -0.6494,1.00321 -1.18235,1.38837 -0.36725,0.26424 -0.70314,0.26424 -0.34038,0 -0.59566,-0.30007 -0.2508,-0.30455 -0.2508,-0.82407 0,-0.66731 0.42546,-1.4242 0.42547,-0.75688 1.12414,-1.23162 0.55087,-0.38068 1.01217,-0.38068 0.24184,0 0.41651,0.0985 0.17466,0.0985 0.34485,0.32694 l 0.43891,-1.55856 q 0.0493,-0.16571 0.0806,-0.26424 0.0537,-0.17914 0.0537,-0.29559 0,-0.094 -0.0672,-0.15675 -0.094,-0.0761 -0.24184,-0.0761 -0.10301,0 -0.34038,0.0313 v -0.16571 z m -1.66157,3.17982 q 0,-0.28664 -0.16571,-0.4613 -0.16571,-0.17467 -0.42099,-0.17467 -0.5643,0 -1.17787,0.93155 -0.6091,0.93156 -0.6091,1.78249 0,0.3359 0.1478,0.51505 0.14779,0.17466 0.35381,0.17466 0.46578,0 1.16892,-1.00769 0.70314,-1.00769 0.70314,-1.76009 z m 1.76458,-0.61358 1.54512,-0.2508 -0.64492,2.17661 q 0.78376,-1.33911 1.4242,-1.87206 0.36277,-0.30455 0.59118,-0.30455 0.14779,0 0.23289,0.0896 0.0851,0.0851 0.0851,0.25081 0,0.29559 -0.15227,0.5643 -0.10749,0.20154 -0.30903,0.20154 -0.10301,0 -0.17914,-0.0672 -0.0717,-0.0672 -0.0896,-0.20602 -0.009,-0.0851 -0.0403,-0.11196 -0.0358,-0.0358 -0.0851,-0.0358 -0.0761,0 -0.14331,0.0358 -0.11645,0.0627 -0.35381,0.34933 -0.37173,0.43891 -0.80615,1.13757 -0.18811,0.29559 -0.32246,0.66731 -0.18811,0.51057 -0.21498,0.61358 l -0.14331,0.5643 h -0.68523 l 0.82854,-2.78122 q 0.14332,-0.48369 0.14332,-0.68971 0,-0.0806 -0.0672,-0.13436 -0.0896,-0.0716 -0.23737,-0.0716 -0.0941,0 -0.34485,0.0403 z m 6.99112,1.15101 q 0,0.67179 -0.35829,1.33015 -0.35381,0.65836 -0.98977,1.04352 -0.63597,0.38516 -1.2361,0.38516 -0.61357,0 -1.00321,-0.38964 -0.38516,-0.39412 -0.38516,-1.01665 0,-0.65835 0.3762,-1.32119 0.38068,-0.66284 1.01217,-1.048 0.63596,-0.38516 1.22714,-0.38516 0.59118,0 0.97186,0.38964 0.38516,0.38964 0.38516,1.01217 z m -0.74345,-0.30903 q 0,-0.41651 -0.20602,-0.63596 -0.20153,-0.22393 -0.52399,-0.22393 -0.65836,0 -1.21371,0.94499 -0.55087,0.94051 -0.55087,1.87206 0,0.42547 0.21497,0.65836 0.21498,0.22841 0.54192,0.22841 0.63148,0 1.18235,-0.93603 0.55535,-0.94051 0.55535,-1.9079 z m 4.63089,1.98403 q -0.46577,0.55983 -0.94051,0.82407 -0.47473,0.25976 -1.00321,0.25976 -0.63596,0 -0.99425,-0.35829 -0.35381,-0.35829 -0.35381,-0.9629 0,-0.68523 0.38068,-1.34807 0.38516,-0.66283 1.03008,-1.07487 0.6494,-0.41651 1.27193,-0.41651 0.48817,0 0.73001,0.20602 0.24185,0.20154 0.24185,0.49712 0,0.27768 -0.17019,0.47474 -0.1254,0.15227 -0.30902,0.15227 -0.13884,0 -0.23289,-0.0896 -0.0896,-0.0896 -0.0896,-0.22393 0,-0.0851 0.0313,-0.15675 0.0358,-0.0717 0.13883,-0.17019 0.10749,-0.10301 0.12988,-0.1478 0.0224,-0.0448 0.0224,-0.094 0,-0.094 -0.0851,-0.15675 -0.12988,-0.0896 -0.36724,-0.0896 -0.43891,0 -0.86885,0.30902 -0.42995,0.30903 -0.7345,0.87781 -0.36724,0.68971 -0.36724,1.37942 0,0.45682 0.25976,0.72553 0.25975,0.26424 0.70762,0.26424 0.34485,0 0.68075,-0.17018 0.34037,-0.17467 0.76136,-0.62701 z m 3.15295,-5.39225 -1.27193,4.40248 0.51056,-0.43443 q 0.83751,-0.70762 1.08831,-1.04799 0.0806,-0.11197 0.0806,-0.17019 0,-0.0403 -0.0269,-0.0761 -0.0269,-0.0358 -0.10749,-0.0582 -0.0761,-0.0224 -0.27319,-0.0224 h -0.15675 l 0.0493,-0.17019 h 1.95716 l -0.0448,0.17019 q -0.33589,0.0179 -0.58222,0.10748 -0.24184,0.0851 -0.47025,0.25528 -0.45234,0.3359 -0.59566,0.46578 l -0.38516,0.34038 q 0.0985,0.32246 0.24184,0.9002 0.24185,0.95842 0.32694,1.13757 0.0851,0.17914 0.17467,0.17914 0.0761,0 0.17914,-0.0761 0.23289,-0.17019 0.49713,-0.54192 l 0.15675,0.11197 q -0.48817,0.61357 -0.74793,0.81063 -0.25976,0.19258 -0.47473,0.19258 -0.1881,0 -0.29111,-0.1478 -0.17914,-0.26423 -0.59566,-2.08255 l -0.61357,0.53295 -0.46129,1.58991 h -0.69867 l 1.4869,-5.1101 0.1254,-0.43443 q 0.0224,-0.11196 0.0224,-0.19706 0,-0.10748 -0.0851,-0.17914 -0.0806,-0.0717 -0.23736,-0.0717 -0.10301,0 -0.32694,0.0448 v -0.15676 z"
           id="path175" /></g><g
         id="g177"
         style="font-size:2.11667px;line-height:4px;font-family:'Times New Roman';-inkscape-font-specification:'Times New Roman, Normal';letter-spacing:0px;word-spacing:0px;fill:#dfb887;fill-opacity:1;stroke:#000000;stroke-width:0.33;stroke-dasharray:none;stroke-opacity:1"
         aria-label="Fdust"
         transform="translate(355.07143,-128.86186)"><path
           style="font-weight:bold;font-size:14.1111px;-inkscape-font-specification:'Times New Roman, Bold';fill:#dfb887;fill-opacity:1;stroke:#000000;stroke-width:0.33;stroke-dasharray:none;stroke-opacity:1"
           d="m -282.25706,508.63514 v 3.83783 h 0.26872 q 0.62012,0 1.01286,-0.18603 0.39274,-0.18604 0.66146,-0.62701 0.2756,-0.44097 0.35829,-1.192 h 0.24115 v 4.69221 h -0.24115 q -0.13092,-1.3298 -0.71658,-1.7501 -0.57878,-0.42719 -1.31603,-0.42719 h -0.26872 v 2.85942 q 0,0.71658 0.0758,0.89573 0.0827,0.17914 0.31005,0.31695 0.23427,0.13091 0.62701,0.13091 h 0.31006 v 0.25494 h -4.88514 v -0.25494 h 0.31006 q 0.40652,0 0.65456,-0.14469 0.17915,-0.0965 0.27561,-0.33073 0.0758,-0.16537 0.0758,-0.86817 v -6.14604 q 0,-0.71658 -0.0758,-0.89573 -0.0758,-0.17914 -0.31006,-0.31006 -0.22737,-0.1378 -0.62011,-0.1378 h -0.31006 v -0.25494 h 7.88237 v 2.68029 h -0.2825 q -0.0965,-0.94396 -0.49609,-1.39871 -0.39274,-0.45475 -1.14377,-0.64079 -0.41341,-0.10335 -1.52962,-0.10335 z"
           id="path176" /><path
           style="font-style:italic;font-size:9.17221px;-inkscape-font-specification:'Times New Roman, Italic';baseline-shift:sub;fill:#dfb887;fill-opacity:1;stroke:#000000;stroke-width:0.33;stroke-dasharray:none;stroke-opacity:1"
           d="m -272.5543,513.89442 -1.54064,5.28477 q -0.12541,0.42995 -0.12541,0.56431 0,0.0448 0.0358,0.0851 0.0403,0.0403 0.0806,0.0403 0.0582,0 0.13884,-0.0582 0.15227,-0.10749 0.51056,-0.53744 l 0.15227,0.0941 q -0.32246,0.44786 -0.65388,0.72554 -0.32694,0.27767 -0.61357,0.27767 -0.15227,0 -0.2508,-0.10748 -0.0985,-0.10749 -0.0985,-0.30455 0,-0.25528 0.13436,-0.68523 l 0.17466,-0.55535 q -0.64939,1.00321 -1.18235,1.38837 -0.36725,0.26424 -0.70314,0.26424 -0.34038,0 -0.59566,-0.30006 -0.2508,-0.30455 -0.2508,-0.82407 0,-0.66731 0.42547,-1.4242 0.42547,-0.75689 1.12413,-1.23162 0.55087,-0.38068 1.01217,-0.38068 0.24184,0 0.41651,0.0985 0.17466,0.0985 0.34485,0.32694 l 0.43891,-1.55856 q 0.0493,-0.16571 0.0806,-0.26424 0.0537,-0.17915 0.0537,-0.29559 0,-0.094 -0.0672,-0.15675 -0.094,-0.0761 -0.24185,-0.0761 -0.10301,0 -0.34037,0.0314 v -0.16571 z m -1.66157,3.17982 q 0,-0.28663 -0.16571,-0.4613 -0.1657,-0.17466 -0.42099,-0.17466 -0.5643,0 -1.17787,0.93155 -0.60909,0.93155 -0.60909,1.78249 0,0.3359 0.14779,0.51504 0.14779,0.17467 0.35381,0.17467 0.46578,0 1.16892,-1.00769 0.70314,-1.00769 0.70314,-1.7601 z m 5.60275,-0.75689 -0.77928,2.66926 q -0.17466,0.59566 -0.17466,0.75241 0,0.0806 0.0269,0.12092 0.0313,0.0358 0.0806,0.0358 0.0761,0 0.1657,-0.0672 0.0941,-0.0717 0.46578,-0.55535 l 0.13436,0.10301 q -0.35381,0.55983 -0.72554,0.82407 -0.24632,0.17018 -0.47473,0.17018 -0.17467,0 -0.2732,-0.0985 -0.0985,-0.0985 -0.0985,-0.25528 0,-0.15227 0.0582,-0.40307 0.0716,-0.33142 0.40755,-1.44212 -0.76136,1.24954 -1.27641,1.72427 -0.51056,0.47473 -0.94946,0.47473 -0.20602,0 -0.34934,-0.14331 -0.14331,-0.14332 -0.14331,-0.36277 0,-0.3359 0.19706,-1.03008 l 0.38964,-1.3839 q 0.14331,-0.49712 0.14331,-0.61805 0,-0.0537 -0.0403,-0.0896 -0.0358,-0.0403 -0.0806,-0.0403 -0.094,0 -0.1881,0.0672 -0.094,0.0672 -0.42547,0.49713 l -0.13884,-0.0985 q 0.3359,-0.51952 0.7121,-0.76584 0.28664,-0.19258 0.52848,-0.19258 0.16571,0 0.26872,0.10748 0.10748,0.10301 0.10748,0.26872 0,0.24185 -0.17914,0.86437 l -0.42099,1.4466 q -0.17467,0.59118 -0.17467,0.74793 0,0.0851 0.0538,0.13883 0.0582,0.0493 0.15227,0.0493 0.14779,0 0.38516,-0.1478 0.23737,-0.14779 0.63149,-0.65387 0.39859,-0.51057 0.65387,-0.95395 0.25976,-0.44786 0.55087,-1.41972 l 0.0985,-0.34038 z m 3.59633,-0.10748 -0.27319,1.37493 h -0.16571 q -0.0224,-0.60013 -0.25528,-0.87333 -0.23289,-0.27319 -0.57774,-0.27319 -0.27768,0 -0.44339,0.15227 -0.16123,0.15227 -0.16123,0.36725 0,0.14779 0.0627,0.28215 0.0672,0.13436 0.28664,0.3762 0.58222,0.63597 0.7524,0.95843 0.17019,0.32246 0.17019,0.60909 0,0.46578 -0.38964,0.82854 -0.38516,0.35829 -0.97634,0.35829 -0.32246,0 -0.74345,-0.15227 -0.14779,-0.0537 -0.22841,-0.0537 -0.20154,0 -0.30454,0.20601 h -0.16571 l 0.27319,-1.45107 h 0.16571 q 0.0269,0.68075 0.28216,0.9629 0.25528,0.28216 0.69866,0.28216 0.34037,0 0.53743,-0.18811 0.20154,-0.19258 0.20154,-0.47025 0,-0.17915 -0.0717,-0.33142 -0.1254,-0.26872 -0.52847,-0.74345 -0.3986,-0.47473 -0.51504,-0.7121 -0.11197,-0.23737 -0.11197,-0.47473 0,-0.43443 0.3135,-0.7345 0.31799,-0.30006 0.81511,-0.30006 0.14332,0 0.25976,0.0224 0.0627,0.0134 0.29111,0.10301 0.23289,0.0851 0.30903,0.0851 0.19258,0 0.32246,-0.21049 z m 2.62447,-1.1107 -0.34933,1.21818 h 0.70315 l -0.0761,0.28216 h -0.69867 l -0.77032,2.64238 q -0.1254,0.42547 -0.1254,0.55087 0,0.0761 0.0358,0.11645 0.0358,0.0403 0.0851,0.0403 0.11197,0 0.29559,-0.15675 0.10749,-0.0896 0.47921,-0.55087 l 0.1478,0.11197 q -0.41203,0.60013 -0.77928,0.84646 -0.2508,0.17018 -0.50608,0.17018 -0.19706,0 -0.32247,-0.12092 -0.1254,-0.1254 -0.1254,-0.31798 0,-0.24185 0.14332,-0.73897 l 0.74793,-2.59312 h -0.67627 l 0.0448,-0.17467 q 0.49265,-0.13436 0.81959,-0.3986 0.32694,-0.26871 0.73002,-0.92707 z"
           id="path177" /></g><g
         id="g181"
         style="font-size:2.11667px;line-height:4px;font-family:'Times New Roman';-inkscape-font-specification:'Times New Roman, Normal';letter-spacing:0px;word-spacing:0px;fill:#cf5e5e;fill-opacity:1;stroke:#000000;stroke-width:0.33;stroke-dasharray:none;stroke-opacity:1"
         aria-label="Ffines"
         transform="translate(501.38649,-68.32576)"><path
           style="font-weight:bold;font-size:14.1111px;-inkscape-font-specification:'Times New Roman, Bold';fill:#cf5e5e;fill-opacity:1;stroke:#000000;stroke-width:0.33;stroke-dasharray:none;stroke-opacity:1"
           d="m -282.25706,544.83472 v 3.83784 h 0.26872 q 0.62012,0 1.01286,-0.18604 0.39274,-0.18603 0.66146,-0.627 0.2756,-0.44098 0.35829,-1.19201 h 0.24115 v 4.69222 h -0.24115 q -0.13092,-1.32981 -0.71658,-1.75011 -0.57878,-0.42719 -1.31603,-0.42719 h -0.26872 v 2.85943 q 0,0.71658 0.0758,0.89572 0.0827,0.17915 0.31005,0.31695 0.23427,0.13091 0.62701,0.13091 h 0.31006 v 0.25494 h -4.88514 v -0.25494 h 0.31006 q 0.40652,0 0.65456,-0.14469 0.17915,-0.0965 0.27561,-0.33073 0.0758,-0.16536 0.0758,-0.86816 v -6.14605 q 0,-0.71658 -0.0758,-0.89572 -0.0758,-0.17915 -0.31006,-0.31006 -0.22737,-0.1378 -0.62011,-0.1378 h -0.31006 v -0.25494 h 7.88237 v 2.68028 h -0.2825 q -0.0965,-0.94395 -0.49609,-1.39871 -0.39274,-0.45475 -1.14377,-0.64078 -0.41341,-0.10336 -1.52962,-0.10336 z"
           id="path180" /><path
           style="font-style:italic;font-size:9.17221px;-inkscape-font-specification:'Times New Roman, Italic';baseline-shift:sub;fill:#cf5e5e;fill-opacity:1;stroke:#000000;stroke-width:0.33;stroke-dasharray:none;stroke-opacity:1"
           d="m -274.79809,552.51694 -0.0806,0.29559 h -0.65388 l -0.49265,1.95715 q -0.32694,1.29432 -0.65836,2.00195 -0.47025,0.99873 -1.01216,1.37941 -0.41204,0.29111 -0.82407,0.29111 -0.26872,0 -0.45682,-0.16123 -0.13883,-0.11197 -0.13883,-0.29111 0,-0.14332 0.11644,-0.2508 0.11196,-0.10301 0.27767,-0.10301 0.12093,0 0.20602,0.0761 0.0806,0.0761 0.0806,0.17466 0,0.0985 -0.0941,0.18362 -0.0717,0.0627 -0.0717,0.0941 0,0.0403 0.0314,0.0627 0.0403,0.0313 0.1254,0.0313 0.19258,0 0.40755,-0.12093 0.2105,-0.12092 0.37621,-0.36276 0.1657,-0.23737 0.3135,-0.68971 0.0627,-0.1881 0.3359,-1.24058 l 0.77928,-3.03202 h -0.77928 l 0.0627,-0.29559 q 0.37172,0 0.51952,-0.0493 0.14779,-0.0537 0.26871,-0.19706 0.1254,-0.14779 0.32246,-0.54639 0.26424,-0.53743 0.50609,-0.83302 0.33142,-0.3986 0.69418,-0.59566 0.36725,-0.20153 0.68971,-0.20153 0.34038,0 0.54639,0.17466 0.20602,0.17019 0.20602,0.37173 0,0.15675 -0.10301,0.26424 -0.10301,0.10748 -0.26424,0.10748 -0.13884,0 -0.22841,-0.0806 -0.0851,-0.0806 -0.0851,-0.19258 0,-0.0717 0.0582,-0.17467 0.0582,-0.10749 0.0582,-0.14331 0,-0.0627 -0.0403,-0.0941 -0.0582,-0.0448 -0.17018,-0.0448 -0.28216,0 -0.50609,0.17914 -0.30006,0.23737 -0.53743,0.74345 -0.12092,0.26424 -0.44338,1.31224 z m 1.88102,-1.8855 q 0.1881,0 0.31798,0.12988 0.12988,0.12988 0.12988,0.31798 0,0.18363 -0.13435,0.31798 -0.12988,0.12988 -0.31351,0.12988 -0.18362,0 -0.31798,-0.12988 -0.12988,-0.13435 -0.12988,-0.31798 0,-0.1881 0.12988,-0.31798 0.12988,-0.12988 0.31798,-0.12988 z m 0.0582,1.77801 -0.88676,3.13951 q -0.0896,0.31798 -0.0896,0.38069 0,0.0716 0.0403,0.11644 0.0448,0.0448 0.10301,0.0448 0.0672,0 0.16123,-0.0717 0.25528,-0.20154 0.51504,-0.57327 l 0.15675,0.10301 q -0.30454,0.46578 -0.71657,0.78376 -0.30455,0.23737 -0.58223,0.23737 -0.18362,0 -0.30006,-0.10749 -0.11645,-0.11196 -0.11645,-0.27767 0,-0.16571 0.11197,-0.55087 l 0.58222,-2.00642 q 0.14331,-0.49265 0.14331,-0.61805 0,-0.0985 -0.0717,-0.16123 -0.0672,-0.0627 -0.1881,-0.0627 -0.0985,0 -0.40756,0.0493 v -0.17467 z m 2.46324,0 -0.59565,2.03777 q 0.8375,-1.24953 1.28088,-1.64365 0.44786,-0.39412 0.8599,-0.39412 0.22393,0 0.36724,0.1478 0.1478,0.14779 0.1478,0.38516 0,0.26871 -0.12988,0.71658 l -0.54639,1.88549 q -0.094,0.32694 -0.094,0.3986 0,0.0627 0.0358,0.10749 0.0358,0.0403 0.0761,0.0403 0.0538,0 0.12988,-0.0582 0.23737,-0.1881 0.51952,-0.57326 l 0.13884,0.0851 q -0.41651,0.59566 -0.78824,0.85094 -0.25976,0.17467 -0.46577,0.17467 -0.16571,0 -0.26424,-0.10301 -0.0985,-0.0985 -0.0985,-0.26872 0,-0.21497 0.15227,-0.73897 l 0.51952,-1.8004 q 0.0985,-0.3359 0.0985,-0.524 0,-0.0896 -0.0582,-0.14332 -0.0582,-0.0582 -0.14332,-0.0582 -0.1254,0 -0.30007,0.10749 -0.33141,0.20153 -0.6897,0.66731 -0.35829,0.4613 -0.75689,1.18236 -0.21049,0.38068 -0.34933,0.83302 l -0.22393,0.73897 h -0.67179 l 0.8151,-2.80361 q 0.14332,-0.50609 0.14332,-0.6091 0,-0.0985 -0.0806,-0.17018 -0.0761,-0.0761 -0.19258,-0.0761 -0.0537,0 -0.1881,0.0179 l -0.17019,0.0269 -0.0269,-0.16123 z m 3.65456,2.36471 q -0.0314,0.22393 -0.0314,0.37173 0,0.39859 0.28215,0.68075 0.28215,0.27767 0.68523,0.27767 0.32246,0 0.61805,-0.12988 0.30007,-0.13436 0.88676,-0.5867 l 0.0941,0.12988 q -1.06144,1.05248 -2.02434,1.05248 -0.65388,0 -0.9853,-0.41204 -0.33141,-0.41203 -0.33141,-0.90915 0,-0.66732 0.41203,-1.36598 0.41203,-0.69867 1.03456,-1.08383 0.62253,-0.38964 1.28088,-0.38964 0.47474,0 0.70315,0.19258 0.22841,0.19258 0.22841,0.45682 0,0.37173 -0.29559,0.7121 -0.38964,0.44338 -1.14653,0.71658 -0.5016,0.18362 -1.41076,0.28663 z m 0.0313,-0.21945 q 0.66283,-0.0761 1.07934,-0.25976 0.55087,-0.24632 0.82407,-0.5867 0.27767,-0.34485 0.27767,-0.65388 0,-0.1881 -0.12092,-0.30454 -0.11644,-0.11645 -0.33589,-0.11645 -0.45682,0 -0.97186,0.48817 -0.51057,0.48369 -0.75241,1.43316 z m 6.27454,-2.14526 -0.27319,1.37494 h -0.16571 q -0.0224,-0.60014 -0.25528,-0.87333 -0.23289,-0.2732 -0.57775,-0.2732 -0.27767,0 -0.44338,0.15227 -0.16123,0.15228 -0.16123,0.36725 0,0.1478 0.0627,0.28215 0.0672,0.13436 0.28663,0.37621 0.58222,0.63596 0.75241,0.95842 0.17019,0.32246 0.17019,0.60909 0,0.46578 -0.38964,0.82855 -0.38516,0.35829 -0.97634,0.35829 -0.32246,0 -0.74345,-0.15228 -0.1478,-0.0537 -0.22841,-0.0537 -0.20154,0 -0.30455,0.20602 h -0.16571 l 0.2732,-1.45107 h 0.16571 q 0.0269,0.68075 0.28215,0.9629 0.25528,0.28215 0.69867,0.28215 0.34037,0 0.53743,-0.1881 0.20154,-0.19258 0.20154,-0.47026 0,-0.17914 -0.0717,-0.33141 -0.1254,-0.26872 -0.52848,-0.74345 -0.39859,-0.47474 -0.51504,-0.7121 -0.11196,-0.23737 -0.11196,-0.47474 0,-0.43442 0.3135,-0.73449 0.31798,-0.30007 0.81511,-0.30007 0.14331,0 0.25976,0.0224 0.0627,0.0134 0.29111,0.10301 0.23289,0.0851 0.30902,0.0851 0.19258,0 0.32246,-0.2105 z"
           id="path181" /></g><path
         style="font-variation-settings:normal;fill:none;fill-opacity:1;stroke:#000000;stroke-width:0.6;stroke-linecap:butt;stroke-linejoin:miter;stroke-miterlimit:4;stroke-dasharray:none;stroke-dashoffset:0;stroke-opacity:1;marker-end:url(#marker299-1);stop-color:#000000"
         d="m -190.76851,490.3646 c 1.66141,-8.47114 3.32281,-16.94227 6.91375,-23.78169 3.59095,-6.83942 9.11143,-12.04712 14.63191,-17.25482"
         id="path298-1"
         inkscape:path-effect="#path-effect298-2"
         inkscape:original-d="m -190.76851,490.3646 c 1.66141,-8.47114 3.32281,-16.94227 4.98422,-25.41342 5.52048,-5.20769 11.04096,-10.41539 16.56144,-15.62309"
         transform="translate(270.48256,-4.7594811)"
         sodipodi:nodetypes="ccc" /><path
         style="font-variation-settings:normal;display:inline;vector-effect:none;fill:none;fill-opacity:1;stroke:#000000;stroke-width:0.6;stroke-linecap:butt;stroke-linejoin:miter;stroke-miterlimit:4;stroke-dasharray:3.6, 3.6;stroke-dashoffset:0;stroke-opacity:1;-inkscape-stroke:none;marker-end:url(#marker299-1-3);stop-color:#000000"
         d="m 97.873409,388.08879 c 0,0 12.826381,-0.39145 16.939071,5.04569 4.79159,6.33467 5.98267,10.61675 5.98267,10.61675"
         id="path140-9"
         sodipodi:nodetypes="csc" /><g
         id="g299"
         transform="translate(-431.15313,265.91846)"><path
           style="font-weight:bold;font-size:14.1111px;line-height:13px;font-family:'Times New Roman';-inkscape-font-specification:'Times New Roman, Bold';font-variation-settings:normal;letter-spacing:0px;word-spacing:0px;vector-effect:none;fill:#bb908b;fill-opacity:1;stroke:#000000;stroke-width:0.3302;stroke-linecap:butt;stroke-linejoin:round;stroke-miterlimit:4;stroke-dasharray:none;stroke-dashoffset:0;stroke-opacity:1;-inkscape-stroke:none;stop-color:#000000"
           d="m 649.57522,194.64211 v 3.83783 h 0.26872 q 0.62012,0 1.01286,-0.18604 0.39274,-0.18603 0.66145,-0.627 0.27561,-0.44097 0.35829,-1.19201 h 0.24116 v 4.69222 h -0.24116 q -0.13091,-1.3298 -0.71658,-1.75011 -0.57877,-0.42719 -1.31602,-0.42719 h -0.26872 v 2.85943 q 0,0.71658 0.0758,0.89572 0.0827,0.17915 0.31006,0.31695 0.23427,0.13092 0.62701,0.13092 h 0.31006 v 0.25493 h -4.88514 v -0.25493 h 0.31005 q 0.40653,0 0.65457,-0.1447 0.17915,-0.0965 0.27561,-0.33073 0.0758,-0.16536 0.0758,-0.86816 v -6.14605 q 0,-0.71658 -0.0758,-0.89572 -0.0758,-0.17914 -0.31006,-0.31006 -0.22738,-0.1378 -0.62012,-0.1378 h -0.31005 v -0.25494 h 7.88237 v 2.68028 h -0.2825 q -0.0965,-0.94395 -0.49609,-1.3987 -0.39274,-0.45476 -1.14377,-0.64079 -0.41341,-0.10335 -1.52962,-0.10335 z"
           id="path264-8-1" /><path
           style="font-style:italic;font-size:9.17221px;line-height:13px;font-family:'Times New Roman';-inkscape-font-specification:'Times New Roman, Bold';font-variation-settings:normal;letter-spacing:0px;word-spacing:0px;baseline-shift:sub;vector-effect:none;fill:#bb908b;fill-opacity:1;stroke:#000000;stroke-width:0.3302;stroke-linecap:butt;stroke-linejoin:round;stroke-miterlimit:4;stroke-dasharray:none;stroke-dashoffset:0;stroke-opacity:1;-inkscape-stroke:none;stop-color:#000000"
           d="m 657.85826,205.29364 q -0.46578,0.55983 -0.94051,0.82407 -0.47474,0.25976 -1.00321,0.25976 -0.63597,0 -0.99426,-0.35829 -0.35381,-0.35829 -0.35381,-0.9629 0,-0.68523 0.38068,-1.34807 0.38517,-0.66283 1.03009,-1.07487 0.6494,-0.41651 1.27192,-0.41651 0.48817,0 0.73002,0.20602 0.24185,0.20154 0.24185,0.49712 0,0.27768 -0.17019,0.47474 -0.1254,0.15227 -0.30903,0.15227 -0.13883,0 -0.23289,-0.0896 -0.0896,-0.0896 -0.0896,-0.22393 0,-0.0851 0.0314,-0.15675 0.0358,-0.0717 0.13884,-0.17019 0.10749,-0.10301 0.12988,-0.1478 0.0224,-0.0448 0.0224,-0.0941 0,-0.094 -0.0851,-0.15675 -0.12988,-0.0896 -0.36725,-0.0896 -0.4389,0 -0.86885,0.30902 -0.42995,0.30903 -0.73449,0.87781 -0.36725,0.68971 -0.36725,1.37942 0,0.45682 0.25976,0.72554 0.25976,0.26423 0.70762,0.26423 0.34486,0 0.68075,-0.17018 0.34038,-0.17467 0.76137,-0.62701 z m 4.76973,-1.675 q 0,0.67179 -0.35829,1.33015 -0.35381,0.65836 -0.98977,1.04352 -0.63597,0.38516 -1.2361,0.38516 -0.61358,0 -1.00322,-0.38964 -0.38516,-0.39412 -0.38516,-1.01665 0,-0.65835 0.37621,-1.32119 0.38068,-0.66284 1.01217,-1.048 0.63596,-0.38516 1.22714,-0.38516 0.59118,0 0.97186,0.38964 0.38516,0.38964 0.38516,1.01217 z m -0.74345,-0.30903 q 0,-0.41651 -0.20602,-0.63596 -0.20154,-0.22393 -0.524,-0.22393 -0.65835,0 -1.2137,0.94499 -0.55087,0.94051 -0.55087,1.87206 0,0.42547 0.21497,0.65836 0.21497,0.22841 0.54191,0.22841 0.63149,0 1.18236,-0.93603 0.55535,-0.94051 0.55535,-1.9079 z m 5.39226,-1.09278 -0.87334,3.03651 -0.0985,0.40755 q -0.0134,0.0582 -0.0134,0.0985 0,0.0717 0.0448,0.1254 0.0358,0.0403 0.0896,0.0403 0.0582,0 0.15227,-0.0717 0.17467,-0.12988 0.46578,-0.53743 l 0.15227,0.10748 q -0.30902,0.46578 -0.63596,0.7121 -0.32694,0.24185 -0.60462,0.24185 -0.19258,0 -0.29111,-0.0985 -0.0941,-0.0941 -0.0941,-0.27767 0,-0.21946 0.0985,-0.57775 l 0.094,-0.33589 q -0.5867,0.76584 -1.07935,1.07039 -0.35381,0.21945 -0.69418,0.21945 -0.32694,0 -0.56431,-0.26872 -0.23736,-0.27319 -0.23736,-0.74793 0,-0.7121 0.42546,-1.50033 0.42995,-0.79272 1.08831,-1.26745 0.51504,-0.37621 0.97186,-0.37621 0.2732,0 0.45234,0.14332 0.18362,0.14331 0.27767,0.47473 l 0.16124,-0.51056 z m -1.59439,0.23289 q -0.28663,0 -0.6091,0.26872 -0.45681,0.38068 -0.8151,1.12861 -0.35382,0.74793 -0.35382,1.35254 0,0.30455 0.15228,0.48369 0.15227,0.17467 0.34933,0.17467 0.48817,0 1.06143,-0.72106 0.76585,-0.95842 0.76585,-1.96611 0,-0.38069 -0.1478,-0.55087 -0.14779,-0.17019 -0.40307,-0.17019 z m 2.35576,0.0179 1.54512,-0.2508 -0.64492,2.17661 q 0.78376,-1.33911 1.4242,-1.87206 0.36277,-0.30455 0.59118,-0.30455 0.14779,0 0.23289,0.0896 0.0851,0.0851 0.0851,0.25081 0,0.29559 -0.15227,0.5643 -0.10749,0.20154 -0.30903,0.20154 -0.10301,0 -0.17914,-0.0672 -0.0717,-0.0672 -0.0896,-0.20602 -0.009,-0.0851 -0.0403,-0.11196 -0.0358,-0.0358 -0.0851,-0.0358 -0.0761,0 -0.14331,0.0358 -0.11645,0.0627 -0.35381,0.34933 -0.37173,0.43891 -0.80615,1.13757 -0.18811,0.29559 -0.32246,0.66732 -0.18811,0.51056 -0.21498,0.61357 l -0.14331,0.5643 h -0.68523 l 0.82854,-2.78122 q 0.14332,-0.48369 0.14332,-0.68971 0,-0.0806 -0.0672,-0.13436 -0.0896,-0.0716 -0.23737,-0.0716 -0.0941,0 -0.34485,0.0403 z m 6.41786,-0.2508 -0.2732,1.37494 h -0.16571 q -0.0224,-0.60014 -0.25528,-0.87333 -0.23289,-0.2732 -0.57774,-0.2732 -0.27768,0 -0.44338,0.15227 -0.16123,0.15228 -0.16123,0.36725 0,0.1478 0.0627,0.28215 0.0672,0.13436 0.28663,0.37621 0.58222,0.63596 0.75241,0.95842 0.17018,0.32246 0.17018,0.6091 0,0.46577 -0.38964,0.82854 -0.38516,0.35829 -0.97634,0.35829 -0.32246,0 -0.74345,-0.15227 -0.14779,-0.0537 -0.22841,-0.0537 -0.20153,0 -0.30454,0.20602 h -0.16571 l 0.27319,-1.45107 h 0.16571 q 0.0269,0.68075 0.28216,0.9629 0.25528,0.28215 0.69866,0.28215 0.34038,0 0.53744,-0.1881 0.20153,-0.19258 0.20153,-0.47025 0,-0.17915 -0.0717,-0.33142 -0.12541,-0.26872 -0.52848,-0.74345 -0.3986,-0.47474 -0.51504,-0.7121 -0.11197,-0.23737 -0.11197,-0.47474 0,-0.43442 0.31351,-0.73449 0.31798,-0.30007 0.8151,-0.30007 0.14332,0 0.25976,0.0224 0.0627,0.0134 0.29111,0.10301 0.23289,0.0851 0.30903,0.0851 0.19258,0 0.32246,-0.2105 z m 1.33462,2.36471 q -0.0314,0.22393 -0.0314,0.37173 0,0.3986 0.28216,0.68075 0.28215,0.27767 0.68523,0.27767 0.32246,0 0.61805,-0.12988 0.30006,-0.13436 0.88676,-0.5867 l 0.0941,0.12988 q -1.06143,1.05248 -2.02433,1.05248 -0.65388,0 -0.9853,-0.41203 -0.33142,-0.41204 -0.33142,-0.90916 0,-0.66732 0.41204,-1.36598 0.41203,-0.69867 1.03456,-1.08383 0.62252,-0.38964 1.28088,-0.38964 0.47474,0 0.70315,0.19258 0.22841,0.19258 0.22841,0.45682 0,0.37173 -0.29559,0.7121 -0.38964,0.44339 -1.14653,0.71658 -0.50161,0.18362 -1.41077,0.28663 z m 0.0314,-0.21945 q 0.66284,-0.0761 1.07935,-0.25976 0.55087,-0.24632 0.82407,-0.5867 0.27767,-0.34485 0.27767,-0.65388 0,-0.1881 -0.12092,-0.30454 -0.11644,-0.11645 -0.3359,-0.11645 -0.45682,0 -0.97186,0.48817 -0.51056,0.48369 -0.75241,1.43316 z"
           id="path257-5-0" /></g><text
         xml:space="preserve"
         style="font-style:normal;font-variant:normal;font-weight:normal;font-stretch:normal;font-size:14.1111px;line-height:2.5px;font-family:Arial;-inkscape-font-specification:'Arial, Normal';font-variant-ligatures:normal;font-variant-caps:normal;font-variant-numeric:normal;font-variant-east-asian:normal;text-decoration:none;text-decoration-line:none;text-decoration-color:#000000;letter-spacing:0px;word-spacing:0px;writing-mode:lr-tb;fill:#000000;stroke-width:0.264583;stroke-linecap:butt;stroke-linejoin:round"
         id="text300"
         y="444.604"
         x="48.586349"><tspan
           sodipodi:role="line"
           id="tspan300"
           style="font-style:normal;font-variant:normal;font-weight:normal;font-stretch:normal;font-size:8.81944px;line-height:2.5px;font-family:Sans;-inkscape-font-specification:'Sans, Normal';font-variant-ligatures:normal;font-variant-caps:normal;font-variant-numeric:normal;font-variant-east-asian:normal;stroke-width:0.264583"
           x="48.586349"
           y="444.604">Weathering</tspan></text><text
         xml:space="preserve"
         style="font-style:normal;font-variant:normal;font-weight:normal;font-stretch:normal;font-size:14.1111px;line-height:2.5px;font-family:Arial;-inkscape-font-specification:'Arial, Normal';font-variant-ligatures:normal;font-variant-caps:normal;font-variant-numeric:normal;font-variant-east-asian:normal;text-decoration:none;text-decoration-line:none;text-decoration-color:#000000;letter-spacing:0px;word-spacing:0px;writing-mode:lr-tb;fill:#000000;stroke-width:0.264583;stroke-linecap:butt;stroke-linejoin:round"
         id="text301"
         y="493.36603"
         x="173.85609"><tspan
           sodipodi:role="line"
           id="tspan301"
           style="font-style:normal;font-variant:normal;font-weight:normal;font-stretch:normal;font-size:8.81944px;line-height:2.5px;font-family:Sans;-inkscape-font-specification:'Sans, Normal';font-variant-ligatures:normal;font-variant-caps:normal;font-variant-numeric:normal;font-variant-east-asian:normal;stroke-width:0.264583"
           x="173.85609"
           y="493.36603">Chemical </tspan><tspan
           sodipodi:role="line"
           style="font-style:normal;font-variant:normal;font-weight:normal;font-stretch:normal;font-size:8.81944px;line-height:2.5px;font-family:Sans;-inkscape-font-specification:'Sans, Normal';font-variant-ligatures:normal;font-variant-caps:normal;font-variant-numeric:normal;font-variant-east-asian:normal;stroke-width:0.264583"
           x="173.85609"
           y="497.22314"
           id="tspan306" /><tspan
           sodipodi:role="line"
           style="font-style:normal;font-variant:normal;font-weight:normal;font-stretch:normal;font-size:8.81944px;line-height:2.5px;font-family:Sans;-inkscape-font-specification:'Sans, Normal';font-variant-ligatures:normal;font-variant-caps:normal;font-variant-numeric:normal;font-variant-east-asian:normal;stroke-width:0.264583"
           x="173.85609"
           y="501.08023"
           id="tspan307" /><tspan
           sodipodi:role="line"
           style="font-style:normal;font-variant:normal;font-weight:normal;font-stretch:normal;font-size:8.81944px;line-height:2.5px;font-family:Sans;-inkscape-font-specification:'Sans, Normal';font-variant-ligatures:normal;font-variant-caps:normal;font-variant-numeric:normal;font-variant-east-asian:normal;stroke-width:0.264583"
           x="173.85609"
           y="504.93735"
           id="tspan308">Erosion</tspan></text><text
         xml:space="preserve"
         style="font-style:normal;font-variant:normal;font-weight:normal;font-stretch:normal;font-size:14.1111px;line-height:2.5px;font-family:Arial;-inkscape-font-specification:'Arial, Normal';font-variant-ligatures:normal;font-variant-caps:normal;font-variant-numeric:normal;font-variant-east-asian:normal;text-decoration:none;text-decoration-line:none;text-decoration-color:#000000;letter-spacing:0px;word-spacing:0px;writing-mode:lr-tb;fill:#000000;stroke-width:0.264583;stroke-linecap:butt;stroke-linejoin:round"
         id="text302"
         y="425.13663"
         x="185.5692"><tspan
           sodipodi:role="line"
           id="tspan302"
           style="font-style:normal;font-variant:normal;font-weight:normal;font-stretch:normal;font-size:8.81944px;line-height:2.5px;font-family:Sans;-inkscape-font-specification:'Sans, Normal';font-variant-ligatures:normal;font-variant-caps:normal;font-variant-numeric:normal;font-variant-east-asian:normal;stroke-width:0.264583"
           x="185.5692"
           y="425.13663">Mechanical </tspan><tspan
           sodipodi:role="line"
           style="font-style:normal;font-variant:normal;font-weight:normal;font-stretch:normal;font-size:8.81944px;line-height:2.5px;font-family:Sans;-inkscape-font-specification:'Sans, Normal';font-variant-ligatures:normal;font-variant-caps:normal;font-variant-numeric:normal;font-variant-east-asian:normal;stroke-width:0.264583"
           x="185.5692"
           y="428.99374"
           id="tspan303" /><tspan
           sodipodi:role="line"
           style="font-style:normal;font-variant:normal;font-weight:normal;font-stretch:normal;font-size:8.81944px;line-height:2.5px;font-family:Sans;-inkscape-font-specification:'Sans, Normal';font-variant-ligatures:normal;font-variant-caps:normal;font-variant-numeric:normal;font-variant-east-asian:normal;stroke-width:0.264583"
           x="185.5692"
           y="432.85083"
           id="tspan304" /><tspan
           sodipodi:role="line"
           style="font-style:normal;font-variant:normal;font-weight:normal;font-stretch:normal;font-size:8.81944px;line-height:2.5px;font-family:Sans;-inkscape-font-specification:'Sans, Normal';font-variant-ligatures:normal;font-variant-caps:normal;font-variant-numeric:normal;font-variant-east-asian:normal;stroke-width:0.264583"
           x="185.5692"
           y="436.70795"
           id="tspan305">Erosion</tspan></text><path
         d="m 510.36746,221.38826 c -6.29496,-0.81036 -12.88342,-1.25988 -19.68924,-1.25988 -2.53517,0 -5.04084,0.0624 -7.51427,0.17932 l -2.29598,18.83141 c 3.38492,-0.22188 6.83545,-0.34055 10.34252,-0.34055 6.61103,0 13.02514,0.41374 19.15697,1.17978 z"
         style="fill:url(#pattern287-6);stroke-width:0.301339"
         id="path283"
         clip-path="url(#clipPath284)"
         transform="translate(-398.13954,291.31934)" /><path
         id="path107"
         style="display:inline;fill:none;stroke:#3a3a3e;stroke-width:0.700002;stroke-opacity:1"
         d="m 67.920675,532.7 c 8.58287,-1.60594 17.88453,-2.48461 27.5998,-2.48461 20.207535,0 38.625725,3.80144 52.508355,10.04174"
         sodipodi:nodetypes="csc" /><path
         id="path106"
         style="display:inline;fill:none;stroke:#3a3a3e;stroke-width:0.700002;stroke-opacity:1"
         d="m 66.939355,514.11478 c 8.70712,-1.65978 18.16387,-2.56941 28.04877,-2.56941 14.353215,0 33.292125,2.93528 47.674585,7.52828 15.22603,4.86239 25.4981,11.39788 25.4981,11.39788"
         sodipodi:nodetypes="cssc"
         inkscape:export-filename="..\..\..\Ch3_HS\Figs_24_07\Hillslope_D_W_E_07.png"
         inkscape:export-xdpi="250"
         inkscape:export-ydpi="250" /></g><rect
       style="opacity:0.98377;fill:#fcfcfc;fill-opacity:1;stroke:#f4c032;stroke-width:0.816002;stroke-dasharray:none;stroke-opacity:1"
       id="rect397"
       width="70.709183"
       height="14.459233"
       x="597.82019"
       y="287.3847" /><text
       xml:space="preserve"
       style="font-size:2.11667px;line-height:6px;font-family:'Times New Roman';-inkscape-font-specification:'Times New Roman, Normal';text-align:start;text-decoration:none;text-decoration-line:none;text-decoration-color:#000000;letter-spacing:0px;word-spacing:0px;writing-mode:lr-tb;white-space:pre;shape-inside:url(#rect397);display:inline;fill:#000000;stroke-width:0.264583;stroke-linecap:butt;stroke-linejoin:round"
       x="613.10687"
       y="347.55066"
       id="text396"
       transform="translate(0.52916667,1.0583333)"><tspan
         x="597.82031"
         y="292.13581"
         id="tspan10"><tspan
           style="font-size:6.35px;font-family:Arial;-inkscape-font-specification:'Arial, Normal'"
           id="tspan9">  Hilltop area considered </tspan></tspan><tspan
         x="597.82031"
         y="299.33097"
         id="tspan12"><tspan
           style="font-size:6.35px;font-family:Arial;-inkscape-font-specification:'Arial, Normal'"
           id="tspan11">for mass balance</tspan></tspan></text><rect
       style="opacity:0.98377;fill:#fcfcfc;fill-opacity:1;stroke:#f4c032;stroke-width:0.816002;stroke-linecap:butt;stroke-linejoin:round;stroke-dasharray:none;stroke-opacity:1"
       id="rect397-2"
       width="65.685493"
       height="31.683319"
       x="766.10858"
       y="425.87958" /><text
       xml:space="preserve"
       style="font-size:2.11667px;line-height:6px;font-family:'Times New Roman';-inkscape-font-specification:'Times New Roman, Normal';text-align:start;text-decoration:none;text-decoration-line:none;text-decoration-color:#000000;letter-spacing:0px;word-spacing:0px;writing-mode:lr-tb;white-space:pre;shape-inside:url(#rect397-2);display:inline;fill:#000000;stroke-width:0.264583;stroke-linecap:butt;stroke-linejoin:round"
       x="613.10687"
       y="347.55066"
       id="text396-9"
       transform="translate(1.9645082,1.5367771)"><tspan
         x="766.10938"
         y="430.62995"
         id="tspan14"><tspan
           style="font-size:6.35px;font-family:Arial;-inkscape-font-specification:'Arial, Normal'"
           id="tspan13"> Erosion rates from </tspan></tspan><tspan
         x="766.10938"
         y="437.82511"
         id="tspan16"><tspan
           style="font-size:6.35px;font-family:Arial;-inkscape-font-specification:'Arial, Normal'"
           id="tspan15">disparate topographic </tspan></tspan><tspan
         x="766.10938"
         y="445.02027"
         id="tspan18"><tspan
           style="font-size:6.35px;font-family:Arial;-inkscape-font-specification:'Arial, Normal'"
           id="tspan17">positions and sample </tspan></tspan><tspan
         x="766.10938"
         y="452.21543"
         id="tspan20"><tspan
           style="font-size:6.35px;font-family:Arial;-inkscape-font-specification:'Arial, Normal'"
           id="tspan19">types are similar.</tspan></tspan></text><rect
       style="opacity:0.98377;fill:#fcfcfc;fill-opacity:1;stroke:#f4c032;stroke-width:0.816003;stroke-linecap:butt;stroke-linejoin:round;stroke-dasharray:none;stroke-opacity:1"
       id="rect397-2-7"
       width="72.144539"
       height="18.286798"
       x="489.72296"
       y="397.25943" /><text
       xml:space="preserve"
       style="font-size:2.11667px;line-height:6px;font-family:'Times New Roman';-inkscape-font-specification:'Times New Roman, Normal';text-align:start;text-decoration:none;text-decoration-line:none;text-decoration-color:#000000;letter-spacing:0px;word-spacing:0px;writing-mode:lr-tb;white-space:pre;shape-inside:url(#rect397-2-7);display:inline;fill:#000000;stroke-width:0.264583;stroke-linecap:butt;stroke-linejoin:round"
       x="613.10687"
       y="347.55066"
       id="text396-9-3"
       transform="translate(3.994389,2.2134063)"><tspan
         x="489.72266"
         y="402.01081"
         id="tspan22"><tspan
           style="font-size:6.35px;font-family:Arial;-inkscape-font-specification:'Arial, Normal'"
           id="tspan21">Average mobile regolith </tspan></tspan><tspan
         x="489.72266"
         y="409.20597"
         id="tspan24"><tspan
           style="font-size:6.35px;font-family:Arial;-inkscape-font-specification:'Arial, Normal'"
           id="tspan23">thickness: 5-8  cm</tspan></tspan></text><rect
       style="opacity:0.98377;fill:#fcfcfc;fill-opacity:1;stroke:#f4c032;stroke-width:0.816002;stroke-linecap:butt;stroke-linejoin:round;stroke-dasharray:none;stroke-opacity:1"
       id="rect397-2-7-5"
       width="72.346336"
       height="16.310841"
       x="776.68304"
       y="299.28952" /><text
       xml:space="preserve"
       style="font-size:2.11667px;line-height:6px;font-family:'Times New Roman';-inkscape-font-specification:'Times New Roman, Normal';text-align:start;text-decoration:none;text-decoration-line:none;text-decoration-color:#000000;letter-spacing:0px;word-spacing:0px;writing-mode:lr-tb;white-space:pre;shape-inside:url(#rect397-2-7-5);display:inline;fill:#000000;stroke-width:0.264583;stroke-linecap:butt;stroke-linejoin:round"
       x="613.10687"
       y="347.55066"
       id="text396-9-3-5"
       transform="translate(3.994389,2.2134063)"><tspan
         x="776.68359"
         y="304.0401"
         id="tspan26"><tspan
           style="font-size:6.35px;font-family:Arial;-inkscape-font-specification:'Arial, Normal'"
           id="tspan25">Average mobile regolith </tspan></tspan><tspan
         x="776.68359"
         y="311.23526"
         id="tspan28"><tspan
           style="font-size:6.35px;font-family:Arial;-inkscape-font-specification:'Arial, Normal'"
           id="tspan27">thickness: ~10 cm</tspan></tspan></text></g></svg>
